<svg width="16" height="16" viewBox="0 0 16 16" fill="none" xmlns="http://www.w3.org/2000/svg">
<path d="M0.0173473 13.7168V5.72544C-0.0447426 4.96009 0.060297 4.1904 0.325198 3.46968C0.5901 2.74896 1.00852 2.09445 1.55148 1.55149C2.09444 1.00853 2.74895 0.590104 3.46967 0.325203C4.19039 0.0603015 4.96009 -0.0447433 5.72544 0.0173465H13.7168C14.3223 0.0173465 14.9031 0.257901 15.3313 0.686091C15.7594 1.11428 16 1.69503 16 2.30058C16 2.90613 15.7594 3.48688 15.3313 3.91507C14.9031 4.34326 14.3223 4.58382 13.7168 4.58382H5.72544C4.70255 4.58382 4.58382 4.70026 4.58382 5.72544V13.7168C4.58382 14.3223 4.34327 14.9031 3.91508 15.3313C3.48689 15.7594 2.90613 16 2.30058 16C1.69503 16 1.11428 15.7594 0.686086 15.3313C0.257895 14.9031 0.0173473 14.3223 0.0173473 13.7168Z" fill="white"/>
</svg>
