<svg width="16" height="16" viewBox="0 0 16 16" fill="none" xmlns="http://www.w3.org/2000/svg">
<path d="M15.9827 2.28324L15.9827 10.2746C16.0447 11.0399 15.9397 11.8096 15.6748 12.5303C15.4099 13.251 14.9915 13.9056 14.4485 14.4485C13.9056 14.9915 13.251 15.4099 12.5303 15.6748C11.8096 15.9397 11.0399 16.0447 10.2746 15.9827L2.28324 15.9827C1.67768 15.9827 1.09694 15.7421 0.668745 15.3139C0.240555 14.8857 1.48184e-07 14.305 2.01123e-07 13.6994C2.54062e-07 13.0939 0.240556 12.5131 0.668746 12.0849C1.09694 11.6567 1.67768 11.4162 2.28324 11.4162L10.2746 11.4162C11.2975 11.4162 11.4162 11.2997 11.4162 10.2746L11.4162 2.28324C11.4162 1.67769 11.6567 1.09694 12.0849 0.668747C12.5131 0.240558 13.0939 1.1447e-06 13.6994 1.19764e-06C14.305 1.25058e-06 14.8857 0.240558 15.3139 0.668747C15.7421 1.09694 15.9827 1.67769 15.9827 2.28324Z" fill="white"/>
</svg>
