<svg width="16" height="16" viewBox="0 0 16 16" fill="none" xmlns="http://www.w3.org/2000/svg">
<path d="M15.9827 13.7168V5.72544C16.0447 4.96009 15.9397 4.1904 15.6748 3.46968C15.4099 2.74896 14.9915 2.09445 14.4485 1.55149C13.9056 1.00853 13.251 0.590104 12.5303 0.325203C11.8096 0.0603015 11.0399 -0.0447433 10.2746 0.0173465H2.28324C1.67768 0.0173465 1.09694 0.257901 0.668745 0.686091C0.240555 1.11428 0 1.69503 0 2.30058C0 2.90613 0.240555 3.48688 0.668745 3.91507C1.09694 4.34326 1.67768 4.58382 2.28324 4.58382H10.2746C11.2975 4.58382 11.4162 4.70026 11.4162 5.72544V13.7168C11.4162 14.3223 11.6567 14.9031 12.0849 15.3313C12.5131 15.7594 13.0939 16 13.6994 16C14.305 16 14.8857 15.7594 15.3139 15.3313C15.7421 14.9031 15.9827 14.3223 15.9827 13.7168Z" fill="white"/>
</svg>
