<svg width="16" height="16" viewBox="0 0 16 16" fill="none" xmlns="http://www.w3.org/2000/svg">
<path d="M0.0173485 2.28324L0.0173478 10.2746C-0.0447422 11.0399 0.0602974 11.8096 0.325198 12.5303C0.590101 13.251 1.00852 13.9056 1.55148 14.4485C2.09444 14.9915 2.74895 15.4099 3.46967 15.6748C4.19039 15.9397 4.96009 16.0447 5.72544 15.9827L13.7168 15.9827C14.3223 15.9827 14.9031 15.7421 15.3313 15.3139C15.7594 14.8857 16 14.305 16 13.6994C16 13.0939 15.7594 12.5131 15.3313 12.0849C14.9031 11.6567 14.3223 11.4162 13.7168 11.4162L5.72544 11.4162C4.70255 11.4162 4.58382 11.2997 4.58382 10.2746L4.58382 2.28324C4.58382 1.67768 4.34327 1.09694 3.91508 0.668745C3.48689 0.240556 2.90613 -1.1447e-06 2.30058 -1.19764e-06C1.69503 -1.25058e-06 1.11428 0.240555 0.686087 0.668745C0.257897 1.09693 0.0173486 1.67768 0.0173485 2.28324Z" fill="white"/>
</svg>
