<svg width="24" height="24" viewBox="0 0 24 24" fill="none" xmlns="http://www.w3.org/2000/svg">
<g id="id-card (2) 1" clip-path="url(#clip0_10908_99207)">
<path id="Vector" d="M21.2499 21H2.75006C1.23303 21 0 19.767 0 18.2499V5.75006C0 4.23303 1.23303 3 2.75006 3H21.2499C22.767 3 24 4.23303 24 5.75006V18.2499C24 19.767 22.767 21 21.2499 21ZM2.75006 4.5C2.06104 4.5 1.5 5.06104 1.5 5.75006V18.2499C1.5 18.939 2.06104 19.5 2.75006 19.5H21.2499C21.939 19.5 22.5 18.939 22.5 18.2499V5.75006C22.5 5.06104 21.939 4.5 21.2499 4.5H2.75006Z" fill="#AFAFAF"/>
<path id="Vector_2" d="M7.49994 12.0001C6.12189 12.0001 5 10.878 5 9.50012C5 8.12207 6.12189 7 7.49994 7C8.87799 7 9.99988 8.12207 9.99988 9.50012C9.99988 10.878 8.87799 12.0001 7.49994 12.0001ZM7.49994 8.5C6.94897 8.5 6.5 8.94897 6.5 9.50012C6.5 10.0511 6.94897 10.5001 7.49994 10.5001C8.0509 10.5001 8.49988 10.0511 8.49988 9.50012C8.49988 8.94897 8.0509 8.5 7.49994 8.5Z" fill="#AFAFAF"/>
<path id="Vector_3" d="M11.25 17.0001C10.836 17.0001 10.5 16.6641 10.5 16.2501V15.7501C10.5 15.061 9.93896 14.5 9.24994 14.5H5.75006C5.06104 14.5 4.5 15.061 4.5 15.7501V16.2501C4.5 16.6641 4.164 17.0001 3.75 17.0001C3.336 17.0001 3 16.6641 3 16.2501V15.7501C3 14.233 4.23303 13 5.75006 13H9.24994C10.767 13 12 14.233 12 15.7501V16.2501C12 16.6641 11.664 17.0001 11.25 17.0001Z" fill="#AFAFAF"/>
<path id="Vector_4" d="M20.2499 9H14.75C14.336 9 14 8.664 14 8.25C14 7.836 14.336 7.5 14.75 7.5H20.2499C20.6639 7.5 20.9999 7.836 20.9999 8.25C20.9999 8.664 20.6639 9 20.2499 9Z" fill="#AFAFAF"/>
<path id="Vector_5" d="M20.2499 13H14.75C14.336 13 14 12.664 14 12.25C14 11.836 14.336 11.5 14.75 11.5H20.2499C20.6639 11.5 20.9999 11.836 20.9999 12.25C20.9999 12.664 20.6639 13 20.2499 13Z" fill="#AFAFAF"/>
<path id="Vector_6" d="M20.2499 17H14.75C14.336 17 14 16.664 14 16.25C14 15.836 14.336 15.5 14.75 15.5H20.2499C20.6639 15.5 20.9999 15.836 20.9999 16.25C20.9999 16.664 20.6639 17 20.2499 17Z" fill="#AFAFAF"/>
</g>
<defs>
<clipPath id="clip0_10908_99207">
<rect width="24" height="24" fill="white"/>
</clipPath>
</defs>
</svg>
