<svg width="24" height="24" viewBox="0 0 24 24" fill="none" xmlns="http://www.w3.org/2000/svg">
<g id="image 1">
<g id="Image">
<path id="Vector" d="M19.5 1.5H4.5C2.84325 1.5 1.5 2.84325 1.5 4.5V19.5C1.5 21.1567 2.84325 22.5 4.5 22.5H19.5C21.1567 22.5 22.5 21.1567 22.5 19.5V4.5C22.5 2.84325 21.1567 1.5 19.5 1.5ZM15.9833 4.57275C17.1885 4.57275 18.1658 5.55 18.1658 6.756C18.1658 7.962 17.1885 8.9385 15.9833 8.9385C14.778 8.9385 13.8 7.96125 13.8 6.756C13.8 5.55075 14.778 4.57275 15.9833 4.57275ZM18.7178 18.8678H15.135H5.283C4.68 18.8678 4.32375 18.1928 4.6635 17.6947L8.883 11.517C9.18075 11.0813 9.8235 11.0813 10.1213 11.517L13.1243 15.9127L15.0023 13.1603C15.3 12.7238 15.9435 12.7238 16.2413 13.1603L19.3365 17.6947C19.677 18.1928 19.32 18.8678 18.7178 18.8678Z" fill="white"/>
</g>
</g>
</svg>
