<svg width="24" height="24" viewBox="0 0 24 24" fill="none" xmlns="http://www.w3.org/2000/svg">
<g id="lightning 1" clip-path="url(#clip0_10614_3182)">
<path id="Vector" d="M9.44515 24C9.35182 24 9.25727 23.9813 9.16699 23.9424C8.85101 23.8061 8.68011 23.4612 8.76307 23.1272L11.1408 13.5564H4.73437C4.50248 13.5564 4.2855 13.4421 4.15439 13.2508C4.02328 13.0595 3.99497 12.8159 4.07859 12.5996L8.77835 0.449483C8.88312 0.178593 9.14365 0 9.43413 0H15.9011C16.1387 0 16.3602 0.12 16.4901 0.31903C16.6198 0.518061 16.6403 0.769169 16.5445 0.986621L13.7616 7.30347H19.2656C19.5228 7.30347 19.7594 7.44386 19.8827 7.66952C20.006 7.89517 19.9962 8.17014 19.8572 8.38651L10.0371 23.6768C9.90429 23.8836 9.67849 24 9.44515 24Z" fill="white"/>
</g>
<defs>
<clipPath id="clip0_10614_3182">
<rect width="24" height="24" fill="white"/>
</clipPath>
</defs>
</svg>
