<svg width="24" height="24" viewBox="0 0 24 24" fill="none" xmlns="http://www.w3.org/2000/svg">
<g id="signal_9187605 1">
<g id="Social Icon">
<path id="SignalStream" d="M16.1406 2H7.85938C4.62344 2 2 4.62344 2 7.85938V16.1406C2 19.3766 4.62344 22 7.85938 22H16.1406C19.3766 22 22 19.3766 22 16.1406V7.85938C22 4.62344 19.3766 2 16.1406 2ZM7.42422 17.2281C7.15312 17.4992 6.70859 17.4785 6.46172 17.1852C5.24219 15.734 4.57773 13.918 4.57773 12C4.57773 10.082 5.2418 8.26602 6.46172 6.81484C6.7082 6.52148 7.15313 6.50078 7.42383 6.77188C7.66211 7.01016 7.68125 7.3918 7.46445 7.64961C5.35898 10.1566 5.35898 13.843 7.46445 16.35C7.68125 16.6078 7.66172 16.9895 7.42383 17.2277L7.42422 17.2281ZM9.25937 15.6105C8.98125 15.8887 8.52266 15.859 8.28164 15.5488C7.49609 14.5375 7.0707 13.3016 7.0707 12.0004C7.0707 10.6992 7.49648 9.46328 8.28164 8.45195C8.52266 8.14141 8.98125 8.11172 9.25937 8.38984C9.49062 8.62148 9.51641 8.98945 9.31602 9.24805C8.06445 10.8617 8.06445 13.1391 9.31602 14.7527C9.51641 15.0113 9.49102 15.3793 9.25937 15.6105ZM12 14.102C10.8391 14.102 9.89805 13.1609 9.89805 12C9.89805 10.8391 10.8391 9.89805 12 9.89805C13.1609 9.89805 14.102 10.8391 14.102 12C14.102 13.1609 13.1609 14.102 12 14.102ZM15.7184 15.5484C15.4773 15.859 15.0188 15.8887 14.7406 15.6105C14.5094 15.3789 14.4836 15.0109 14.684 14.7523C15.9355 13.1387 15.9355 10.8613 14.684 9.24766C14.4836 8.98906 14.509 8.62109 14.7406 8.38984C15.0188 8.11172 15.4773 8.14141 15.7184 8.45156C16.5039 9.46289 16.9293 10.6988 16.9293 12C16.9293 13.3012 16.5035 14.5371 15.7184 15.5484ZM17.5379 17.1852C17.2914 17.4785 16.8465 17.4992 16.5754 17.2281C16.3371 16.9898 16.318 16.6082 16.5348 16.3504C18.6402 13.8434 18.6402 10.157 16.5348 7.65C16.318 7.39219 16.3375 7.01055 16.5754 6.77227C16.8465 6.50117 17.291 6.52187 17.5375 6.81523C18.757 8.26641 19.4215 10.0824 19.4215 12.0004C19.4215 13.9184 18.7574 15.7344 17.5375 17.1855L17.5379 17.1852Z" fill="#007DC0"/>
</g>
</g>
</svg>
