<svg width="20" height="20" viewBox="0 0 20 20" fill="none" xmlns="http://www.w3.org/2000/svg">
<g clip-path="url(#clip0_11135_78168)">
<path d="M11.4706 4.26338V5.2802V7.72422V10.6926V13.2392C11.4706 13.6542 11.4592 14.0714 11.4706 14.4863V14.5023L12.1546 13.8183C11.5322 13.8183 10.9098 13.8183 10.2874 13.8183C9.30249 13.8183 8.31987 13.8183 7.33497 13.8183C7.10698 13.8183 6.87899 13.8183 6.651 13.8183L7.33497 14.5023C7.33041 14.0098 7.18905 13.4969 6.89951 13.0933C6.57805 12.6465 6.16539 12.3273 5.64786 12.1335C4.71995 11.7869 3.56178 12.0947 2.93254 12.8608C2.54496 13.3304 2.32381 13.8867 2.31697 14.5023L3.00093 13.8183C2.68175 13.8183 2.36485 13.8183 2.04567 13.8183C1.83364 13.8183 1.62389 13.8183 1.41186 13.8183C1.29787 13.8183 1.17932 13.8252 1.06532 13.8115C1.12688 13.8206 1.18616 13.8274 1.24771 13.8366C1.19756 13.8274 1.15196 13.8138 1.10408 13.7955L1.26823 13.8639C1.24087 13.8502 1.21579 13.8366 1.19072 13.8229C1.0904 13.7704 1.32523 13.946 1.22719 13.848C1.13372 13.7545 1.28647 13.9551 1.25911 13.8958C1.24543 13.8662 1.22491 13.8366 1.20896 13.8046C1.23175 13.8593 1.25455 13.9141 1.27735 13.9688C1.25911 13.9209 1.24543 13.8753 1.23631 13.8252C1.24543 13.8867 1.25227 13.946 1.26139 14.0075C1.24771 13.8981 1.25455 13.7864 1.25455 13.677C1.25455 13.4467 1.25455 13.2141 1.25455 12.9839C1.25455 12.2133 1.25455 11.4427 1.25455 10.6698C1.25455 9.72823 1.25455 8.78892 1.25455 7.84733C1.25455 7.04026 1.25455 6.23319 1.25455 5.42383C1.25455 5.04081 1.24771 4.65552 1.25455 4.2725C1.25455 4.2383 1.25683 4.2041 1.26139 4.1699C1.25227 4.23146 1.24543 4.29074 1.23631 4.35229C1.24543 4.30214 1.25911 4.25654 1.27735 4.20866C1.25455 4.26338 1.23175 4.3181 1.20896 4.37281C1.22263 4.34545 1.23631 4.32038 1.24999 4.2953C1.30243 4.19498 1.12688 4.42981 1.22491 4.33177C1.31839 4.2383 1.11776 4.39105 1.17704 4.36369C1.20668 4.35001 1.23631 4.32949 1.26823 4.31354C1.21351 4.33633 1.1588 4.35913 1.10408 4.38193C1.15196 4.36369 1.19756 4.35001 1.24771 4.34089C1.18616 4.35001 1.12688 4.35685 1.06532 4.36597C1.1816 4.35001 1.30015 4.35913 1.41642 4.35913H2.1665H4.66752H7.69063H10.3079C10.7229 4.35913 11.1355 4.35229 11.5504 4.35913C11.5846 4.35913 11.6211 4.36141 11.6553 4.36597C11.5938 4.35685 11.5345 4.35001 11.4729 4.34089C11.5231 4.35001 11.5687 4.36369 11.6166 4.38193C11.5618 4.35913 11.5071 4.33633 11.4524 4.31354C11.4798 4.32721 11.5048 4.34089 11.5299 4.35457C11.6302 4.40701 11.3954 4.23146 11.4934 4.32949C11.5869 4.42297 11.4342 4.22234 11.4615 4.28162C11.4752 4.31126 11.4957 4.34089 11.5117 4.37281C11.4889 4.3181 11.4661 4.26338 11.4433 4.20866C11.4615 4.25654 11.4752 4.30214 11.4843 4.35229C11.4752 4.29074 11.4684 4.23146 11.4592 4.1699C11.4661 4.20182 11.4684 4.23374 11.4706 4.26338C11.4798 4.62132 11.7784 4.9633 12.1546 4.94734C12.5171 4.93138 12.8477 4.6464 12.8386 4.26338C12.8203 3.5589 12.2709 3.00717 11.5664 2.99121C11.5345 2.99121 11.5026 2.99121 11.4684 2.99121C11.2404 2.99121 11.0124 2.99121 10.7844 2.99121C9.8793 2.99121 8.97191 2.99121 8.0668 2.99121C6.93371 2.99121 5.80289 2.99121 4.6698 2.99121C3.76241 2.99121 2.85502 2.99121 1.94763 2.99121C1.71737 2.99121 1.48938 2.99121 1.25911 2.99121C1.22491 2.99121 1.193 2.99121 1.1588 2.99121C0.461158 3.00717 -0.0746117 3.54066 -0.113369 4.23374C-0.120209 4.36825 -0.113369 4.50276 -0.113369 4.63728V5.6427V8.73648V12.0104V13.8548C-0.113369 14.0121 -0.0996903 14.1717 -0.0449734 14.3199C0.146536 14.8488 0.625308 15.1862 1.18844 15.1885C1.65809 15.1908 2.12774 15.1885 2.5974 15.1885H3.00321C3.37483 15.1885 3.68489 14.8762 3.68717 14.5046C3.68717 14.4202 3.69401 14.3358 3.70541 14.2515C3.69629 14.313 3.68945 14.3723 3.68033 14.4339C3.70313 14.2811 3.74189 14.1329 3.80117 13.9916C3.77837 14.0463 3.75557 14.101 3.73277 14.1557C3.77837 14.0486 3.83081 13.9483 3.89464 13.8502C3.9106 13.8252 3.92884 13.8024 3.9448 13.7773C3.98812 13.7112 3.83309 13.9141 3.90148 13.8343C3.94024 13.7887 3.979 13.7431 4.02231 13.702C4.06107 13.6633 4.10211 13.6268 4.14315 13.5926C4.23662 13.5105 4.08615 13.6291 4.08615 13.6359C4.08615 13.6245 4.14543 13.5926 4.15911 13.5835C4.25942 13.5174 4.36658 13.4604 4.47601 13.4148C4.42129 13.4376 4.36657 13.4604 4.31186 13.4832C4.45549 13.4262 4.6014 13.3851 4.75415 13.3623C4.6926 13.3715 4.63332 13.3783 4.57176 13.3874C4.74047 13.3646 4.90918 13.3646 5.07789 13.3874C5.01634 13.3783 4.95706 13.3715 4.8955 13.3623C5.04826 13.3851 5.19645 13.4239 5.3378 13.4832C5.28308 13.4604 5.22837 13.4376 5.17365 13.4148C5.2808 13.4604 5.38112 13.5128 5.47915 13.5766C5.50423 13.5926 5.52703 13.6108 5.55211 13.6268C5.61822 13.6701 5.41532 13.5151 5.49739 13.5835C5.54299 13.6222 5.58858 13.661 5.62962 13.7043C5.66838 13.7431 5.70486 13.7841 5.73906 13.8252C5.82113 13.9186 5.70258 13.7682 5.69574 13.7682C5.70714 13.7682 5.73906 13.8274 5.74818 13.8411C5.81429 13.9414 5.87129 14.0486 5.91689 14.158C5.89409 14.1033 5.87129 14.0486 5.84849 13.9939C5.90549 14.1375 5.94653 14.2834 5.96932 14.4362C5.9602 14.3746 5.95336 14.3153 5.94424 14.2538C5.95564 14.3381 5.9602 14.4225 5.96248 14.5068C5.96476 14.8762 6.27255 15.1908 6.64644 15.1908H8.51366H11.4661H12.1501C12.5194 15.1908 12.834 14.8785 12.834 14.5068C12.834 14.1671 12.834 13.8297 12.834 13.49C12.834 12.6761 12.834 11.8599 12.834 11.046C12.834 10.0565 12.834 9.06706 12.834 8.0776C12.834 7.22949 12.834 6.3791 12.834 5.53099C12.834 5.11605 12.8431 4.69883 12.834 4.2839C12.834 4.27934 12.834 4.2725 12.834 4.26794C12.834 3.91 12.5194 3.56802 12.1501 3.58398C11.783 3.59766 11.4706 3.88036 11.4706 4.26338Z" fill="#AFAFAF"/>
<path d="M18.7479 10.1278V11.4775V13.5955C18.7479 13.7688 18.7615 13.9489 18.7433 14.1222C18.7524 14.0606 18.7593 14.0013 18.7684 13.9398C18.7615 13.9808 18.7501 14.0173 18.7342 14.056C18.757 14.0013 18.7798 13.9466 18.8026 13.8919C18.7935 13.9101 18.7843 13.9261 18.7752 13.9443C18.7296 14.0378 18.8733 13.8372 18.8185 13.8873C18.7752 13.9284 18.9462 13.8212 18.8892 13.8372C18.8687 13.8417 18.8413 13.8645 18.8231 13.8737L18.9872 13.8053C18.9485 13.8212 18.912 13.8326 18.871 13.8395C18.9325 13.8303 18.9918 13.8235 19.0534 13.8144C18.8163 13.8395 18.5655 13.8189 18.3284 13.8189C18.0935 13.8189 17.8564 13.8189 17.6216 13.8189L18.3056 14.5029C18.3124 14.015 18.1619 13.4929 17.8792 13.0917C17.5578 12.638 17.1405 12.3142 16.6185 12.1182C15.6814 11.7671 14.5278 12.0862 13.894 12.8568C13.5133 13.3219 13.2807 13.8942 13.2898 14.5006C13.5178 14.2726 13.7458 14.0446 13.9738 13.8167C13.3696 13.8167 12.7632 13.8167 12.159 13.8167L12.843 14.5006C12.843 14.2156 12.843 13.9306 12.843 13.6457C12.843 12.9617 12.843 12.2777 12.843 11.5938C12.843 10.7662 12.843 9.9386 12.843 9.11328C12.843 8.39741 12.843 7.68381 12.843 6.96793C12.843 6.62139 12.8544 6.27257 12.843 5.92831C12.843 5.92375 12.843 5.91691 12.843 5.91235C12.615 6.14033 12.387 6.36832 12.159 6.59631H15.2141C15.3873 6.59631 15.5652 6.58719 15.7384 6.60543C15.6769 6.59631 15.6176 6.58947 15.556 6.58035C15.6632 6.59631 15.7635 6.62367 15.8615 6.6647C15.8068 6.64191 15.7521 6.61911 15.6974 6.59631C15.7567 6.62367 15.8707 6.6647 15.9117 6.71942C15.9185 6.72854 15.7909 6.61455 15.8433 6.66698C15.8593 6.68294 15.8798 6.6989 15.8957 6.71486C15.9163 6.73538 15.9368 6.75818 15.9573 6.78098C15.9664 6.7901 15.9733 6.79922 15.9824 6.81062C16.0371 6.87445 16.0941 6.93601 16.1488 6.99984C16.37 7.25063 16.5888 7.50142 16.81 7.7522C17.3321 8.34497 17.8519 8.93773 18.374 9.5305C18.4515 9.61942 18.529 9.70833 18.6065 9.79497C18.6247 9.81548 18.6407 9.83372 18.6589 9.85424C18.6658 9.86108 18.6703 9.8702 18.6772 9.87476C18.7273 9.9272 18.6179 9.80636 18.627 9.80864C18.6407 9.8132 18.6703 9.87248 18.6772 9.88616C18.7068 9.93404 18.7296 9.9842 18.7524 10.0344C18.7296 9.97964 18.7068 9.92492 18.684 9.8702C18.7205 9.96368 18.7456 10.0572 18.7615 10.1552C18.7524 10.0936 18.7456 10.0344 18.7365 9.9728C18.7433 10.0298 18.7456 10.0777 18.7479 10.1278C18.7547 10.4858 19.0579 10.8277 19.4318 10.8118C19.7966 10.7958 20.1226 10.5108 20.1158 10.1278C20.1089 9.66045 19.9357 9.25008 19.6324 8.8967C19.6051 8.8625 19.5755 8.83058 19.5458 8.79866C19.3703 8.60031 19.197 8.40197 19.0214 8.20362C18.5108 7.62225 18.0001 7.04088 17.4894 6.4618C17.3229 6.27257 17.1565 6.08334 16.9901 5.89411C16.6435 5.49969 16.1876 5.26942 15.6609 5.23523C15.4854 5.22383 15.3075 5.23295 15.1297 5.23295C14.7672 5.23295 14.4024 5.23295 14.0399 5.23295C13.4221 5.23295 12.8042 5.22611 12.1864 5.23295C12.175 5.23295 12.1636 5.23295 12.1522 5.23295C11.7829 5.23295 11.4682 5.54529 11.4682 5.91691V6.77186V8.82374V11.3042V13.4496C11.4682 13.7961 11.4614 14.1427 11.4682 14.4892V14.5052C11.4682 14.8745 11.7806 15.1891 12.1522 15.1891H13.967C14.3318 15.1891 14.6555 14.8768 14.6509 14.5052C14.6487 14.4163 14.6555 14.3251 14.6692 14.2362C14.6601 14.2977 14.6532 14.357 14.6441 14.4185C14.6669 14.2658 14.7056 14.1176 14.7649 13.9762C14.7421 14.031 14.7193 14.0857 14.6965 14.1404C14.7421 14.0332 14.7946 13.9329 14.8584 13.8349C14.8744 13.8098 14.8926 13.787 14.9086 13.7619C14.9519 13.6958 14.7968 13.8987 14.8652 13.8167C14.904 13.7711 14.9428 13.7255 14.9861 13.6844C15.0248 13.6457 15.0659 13.6092 15.1069 13.575C15.2004 13.4929 15.0499 13.6115 15.0499 13.6183C15.0499 13.6069 15.1092 13.575 15.1229 13.5659C15.2232 13.4998 15.3303 13.4428 15.4398 13.3972C15.385 13.42 15.3303 13.4428 15.2756 13.4656C15.4192 13.4086 15.5652 13.3675 15.7179 13.3447C15.6564 13.3538 15.5971 13.3607 15.5355 13.3698C15.7042 13.347 15.8729 13.347 16.0417 13.3698C15.9801 13.3607 15.9208 13.3538 15.8593 13.3447C16.012 13.3675 16.1602 13.4063 16.3016 13.4656C16.2468 13.4428 16.1921 13.42 16.1374 13.3972C16.2446 13.4428 16.3449 13.4952 16.4429 13.559C16.468 13.575 16.4908 13.5932 16.5159 13.6092C16.582 13.6525 16.3791 13.4975 16.4589 13.5659C16.5045 13.6046 16.5501 13.6434 16.5911 13.6867C16.6299 13.7255 16.6663 13.7665 16.7005 13.8075C16.7826 13.901 16.6641 13.7505 16.6572 13.7505C16.6686 13.7505 16.7005 13.8098 16.7097 13.8235C16.7758 13.9238 16.8328 14.031 16.8784 14.1404C16.8556 14.0857 16.8328 14.031 16.81 13.9762C16.867 14.1199 16.908 14.2658 16.9308 14.4185C16.9217 14.357 16.9148 14.2977 16.9057 14.2362C16.9171 14.3251 16.924 14.414 16.924 14.5052C16.9194 14.8745 17.2409 15.1891 17.6079 15.1891H18.8527C18.9097 15.1891 18.969 15.1914 19.026 15.1869C19.4113 15.1595 19.7715 14.9612 19.963 14.6123C20.0816 14.398 20.1067 14.17 20.1067 13.9329C20.1067 12.9822 20.1067 12.0315 20.1067 11.0808C20.1067 10.7639 20.1067 10.4447 20.1067 10.1278C20.1067 9.76989 19.792 9.42791 19.4227 9.44387C19.0602 9.45982 18.7479 9.74481 18.7479 10.1278Z" fill="#AFAFAF"/>
<path d="M16.9331 14.4883C16.9309 14.5681 16.9263 14.6456 16.9172 14.7231C16.9263 14.6616 16.9331 14.6023 16.9423 14.5407C16.9195 14.7026 16.8784 14.8599 16.8146 15.0104C16.8374 14.9557 16.8602 14.901 16.883 14.8462C16.8397 14.9466 16.7895 15.0446 16.7279 15.1358C16.712 15.1609 16.6938 15.1837 16.6778 15.2087C16.6117 15.3068 16.7918 15.0742 16.712 15.1631C16.6755 15.2042 16.6413 15.2452 16.6026 15.284C16.5638 15.3227 16.525 15.3592 16.4817 15.3957C16.4384 15.4322 16.3495 15.4732 16.5273 15.3615C16.5068 15.3752 16.4863 15.3911 16.4658 15.4048C16.37 15.4686 16.2697 15.5234 16.1648 15.569C16.2195 15.5462 16.2743 15.5234 16.329 15.5006C16.1785 15.5644 16.0212 15.6077 15.8593 15.6305C15.9209 15.6214 15.9802 15.6146 16.0417 15.6054C15.873 15.6282 15.7066 15.6282 15.5379 15.6054C15.5994 15.6146 15.6587 15.6214 15.7202 15.6305C15.5584 15.6077 15.4011 15.5644 15.2506 15.5006C15.3053 15.5234 15.36 15.5462 15.4147 15.569C15.3144 15.5256 15.2164 15.4732 15.1252 15.4116C15.1001 15.3957 15.0773 15.3752 15.0522 15.3615C15.2232 15.4686 15.1434 15.4344 15.0978 15.3957C15.0568 15.3615 15.0158 15.3227 14.977 15.284C14.9383 15.2452 14.9041 15.2042 14.8676 15.1631C14.7946 15.0788 14.9679 15.3045 14.9018 15.2087C14.8881 15.1882 14.8721 15.1677 14.8585 15.1472C14.7946 15.0514 14.7422 14.9511 14.6966 14.844C14.7194 14.8987 14.7422 14.9534 14.765 15.0081C14.7034 14.8554 14.6601 14.7003 14.6373 14.5385C14.6464 14.6 14.6533 14.6593 14.6624 14.7208C14.6419 14.559 14.6441 14.3948 14.6647 14.233C14.6555 14.2945 14.6487 14.3538 14.6396 14.4153C14.6624 14.2626 14.7011 14.1144 14.7604 13.9731C14.7376 14.0278 14.7148 14.0825 14.692 14.1372C14.7376 14.03 14.7901 13.9297 14.8539 13.8317C14.8699 13.8066 14.8881 13.7838 14.9041 13.7587C14.9474 13.6926 14.7923 13.8955 14.8607 13.8135C14.8995 13.7679 14.9383 13.7223 14.9816 13.6812C15.0203 13.6425 15.0614 13.606 15.1024 13.5718C15.1959 13.4897 15.0454 13.6083 15.0454 13.6151C15.0454 13.6037 15.1047 13.5718 15.1184 13.5627C15.2187 13.4966 15.3258 13.4396 15.4353 13.394C15.3805 13.4168 15.3258 13.4396 15.2711 13.4624C15.4147 13.4054 15.5607 13.3643 15.7134 13.3415C15.6518 13.3506 15.5926 13.3575 15.531 13.3666C15.6997 13.3438 15.8684 13.3438 16.0371 13.3666C15.9756 13.3575 15.9163 13.3506 15.8548 13.3415C16.0075 13.3643 16.1557 13.4031 16.2971 13.4624C16.2423 13.4396 16.1876 13.4168 16.1329 13.394C16.2401 13.4396 16.3404 13.492 16.4384 13.5558C16.4635 13.5718 16.4863 13.59 16.5114 13.606C16.5775 13.6493 16.3746 13.4943 16.4544 13.5627C16.5 13.6014 16.5456 13.6402 16.5866 13.6835C16.6254 13.7223 16.6618 13.7633 16.696 13.8043C16.7781 13.8978 16.6596 13.7473 16.6527 13.7473C16.6641 13.7473 16.696 13.8066 16.7051 13.8203C16.7713 13.9206 16.8283 14.0278 16.8739 14.1372C16.8511 14.0825 16.8283 14.0278 16.8055 13.9731C16.8625 14.1167 16.9035 14.2626 16.9263 14.4153C16.9172 14.3538 16.9103 14.2945 16.9012 14.233C16.9263 14.3196 16.9309 14.4039 16.9331 14.4883C16.9354 14.8462 17.2455 15.1882 17.6171 15.1723C17.9842 15.1563 18.3033 14.8713 18.3011 14.4883C18.2965 13.989 18.1506 13.476 17.8565 13.0679C17.5327 12.6188 17.1087 12.2951 16.5843 12.1104C15.6496 11.7775 14.5028 12.0967 13.8804 12.8719C13.5293 13.3073 13.3287 13.8021 13.2899 14.3629C13.2557 14.8485 13.3902 15.3661 13.6433 15.781C13.8941 16.1936 14.2725 16.5493 14.7148 16.7499C15.2346 16.987 15.7886 17.0509 16.3495 16.9346C16.8647 16.8274 17.3686 16.5219 17.7015 16.1138C18.0822 15.6465 18.2942 15.097 18.3011 14.4906C18.3056 14.1326 17.9819 13.7907 17.6171 13.8066C17.2409 13.8226 16.9377 14.1053 16.9331 14.4883Z" fill="#AFAFAF"/>
<path d="M5.96471 14.5025C5.96471 14.5869 5.95787 14.6712 5.94647 14.7556C5.95559 14.694 5.96243 14.6347 5.97155 14.5732C5.94875 14.7259 5.91 14.8741 5.85072 15.0155L5.91912 14.8513C5.87352 14.9585 5.82108 15.0588 5.75724 15.1568C5.74129 15.1819 5.72305 15.2047 5.70709 15.2298C5.66377 15.2959 5.8188 15.093 5.75041 15.1751C5.71165 15.2207 5.67289 15.2663 5.62957 15.3073C5.59081 15.3461 5.54978 15.3825 5.50874 15.4167C5.41526 15.4988 5.56574 15.3802 5.56574 15.3734C5.56574 15.3848 5.50646 15.4167 5.49278 15.4258C5.39247 15.492 5.28531 15.549 5.17588 15.5946L5.34003 15.5262C5.1964 15.5832 5.05049 15.6242 4.89773 15.647C4.95929 15.6379 5.01857 15.631 5.08012 15.6219C4.91141 15.6447 4.7427 15.6447 4.57399 15.6219C4.63555 15.631 4.69483 15.6379 4.75638 15.647C4.60363 15.6242 4.45544 15.5854 4.31409 15.5262L4.47824 15.5946C4.37108 15.549 4.27077 15.4965 4.17274 15.4327C4.14766 15.4167 4.12486 15.3985 4.09978 15.3825C4.03366 15.3392 4.23657 15.4942 4.1545 15.4258C4.1089 15.3871 4.0633 15.3483 4.02226 15.305C3.98351 15.2663 3.94703 15.2252 3.91283 15.1842C3.83075 15.0907 3.94931 15.2412 3.95615 15.2412C3.94475 15.2412 3.91283 15.1819 3.90371 15.1682C3.83759 15.0679 3.7806 14.9608 3.735 14.8513C3.7578 14.906 3.7806 14.9608 3.8034 15.0155C3.7464 14.8718 3.70536 14.7259 3.68256 14.5732C3.69168 14.6347 3.69852 14.694 3.70764 14.7556C3.68484 14.5869 3.68484 14.4181 3.70764 14.2494C3.69852 14.311 3.69168 14.3703 3.68256 14.4318C3.70536 14.2791 3.74412 14.1309 3.8034 13.9895C3.7806 14.0442 3.7578 14.099 3.735 14.1537C3.7806 14.0465 3.83303 13.9462 3.89687 13.8482C3.91283 13.8231 3.93107 13.8003 3.94703 13.7752C3.99035 13.7091 3.83531 13.912 3.90371 13.8322C3.94247 13.7866 3.98123 13.741 4.02454 13.7C4.0633 13.6612 4.10434 13.6247 4.14538 13.5906C4.23885 13.5085 4.08838 13.627 4.08838 13.6339C4.08838 13.6225 4.14766 13.5906 4.16134 13.5814C4.26165 13.5153 4.3688 13.4583 4.47824 13.4127C4.42352 13.4355 4.3688 13.4583 4.31409 13.4811C4.45772 13.4241 4.60363 13.3831 4.75638 13.3603C4.69483 13.3694 4.63555 13.3762 4.57399 13.3854C4.7427 13.3626 4.91141 13.3626 5.08012 13.3854C5.01857 13.3762 4.95929 13.3694 4.89773 13.3603C5.05049 13.3831 5.19868 13.4218 5.34003 13.4811C5.28531 13.4583 5.23059 13.4355 5.17588 13.4127C5.28303 13.4583 5.38335 13.5108 5.48138 13.5746C5.50646 13.5906 5.52926 13.6088 5.55434 13.6247C5.62045 13.6681 5.41754 13.513 5.49962 13.5814C5.54522 13.6202 5.59081 13.6589 5.63185 13.7023C5.67061 13.741 5.70709 13.7821 5.74129 13.8231C5.82336 13.9166 5.70481 13.7661 5.69797 13.7661C5.70937 13.7661 5.74129 13.8254 5.75041 13.8391C5.81652 13.9394 5.87352 14.0465 5.91912 14.156C5.89632 14.1012 5.87352 14.0465 5.85072 13.9918C5.90772 14.1354 5.94875 14.2814 5.97155 14.4341C5.96243 14.3725 5.95559 14.3133 5.94647 14.2517C5.95787 14.3338 5.96471 14.4181 5.96471 14.5025C5.96699 14.8604 6.27706 15.2024 6.64867 15.1865C7.01573 15.1705 7.33491 14.8855 7.33263 14.5025C7.32807 14.01 7.18672 13.4971 6.89718 13.0935C6.57572 12.6467 6.16306 12.3275 5.64553 12.1337C4.71762 11.7872 3.55945 12.095 2.93021 12.861C2.57455 13.2942 2.37164 13.7821 2.32148 14.3429C2.27816 14.8354 2.41268 15.362 2.66802 15.7838C2.91425 16.1919 3.29043 16.5567 3.72588 16.7527C4.24797 16.9876 4.78602 17.0582 5.34915 16.9511C6.4982 16.7322 7.32124 15.6493 7.33035 14.5002C7.33263 14.1423 7.01345 13.8003 6.64639 13.8163C6.27706 13.8345 5.96927 14.1195 5.96471 14.5025Z" fill="#AFAFAF"/>
<path d="M19.295 9.01855C18.4857 9.01855 17.6786 9.01855 16.8693 9.01855C15.5903 9.01855 14.3113 9.01855 13.0345 9.01855C12.7427 9.01855 12.4486 9.01855 12.1568 9.01855C11.7988 9.01855 11.4569 9.33318 11.4728 9.70252C11.4888 10.0741 11.7738 10.3865 12.1568 10.3865H14.5826H18.4173H19.295C19.653 10.3865 19.995 10.0719 19.979 9.70252C19.9608 9.33318 19.6781 9.01855 19.295 9.01855Z" fill="#AFAFAF"/>
</g>
<defs>
<clipPath id="clip0_11135_78168">
<rect width="20" height="20" fill="white"/>
</clipPath>
</defs>
</svg>
