<svg width="20" height="20" viewBox="0 0 20 20" fill="none" xmlns="http://www.w3.org/2000/svg">
<g clip-path="url(#clip0_11156_78172)">
<path d="M18.9082 9.59784C18.9082 9.15942 18.9082 6.3821 18.9082 5.97425C18.9082 4.74309 17.9064 3.74121 16.6748 3.74121H2.23264C1.00148 3.74117 0 4.74305 0 5.97421V13.3437C0 14.0024 0.535717 14.5377 1.19402 14.5377H2.18273C2.44759 15.5276 3.35198 16.259 4.42417 16.259C5.49677 16.259 6.40156 15.5276 6.66641 14.5377H12.9573C13.2222 15.5276 14.1266 16.259 15.1988 16.259C16.2713 16.259 17.1761 15.5276 17.441 14.5377H18.5771C19.3617 14.5377 20 13.8998 20 13.1152V11.6427C20 10.5773 19.411 10.0269 18.9082 9.59784ZM15.1987 15.0606C14.5786 15.0606 14.0774 14.5549 14.0774 13.9389V13.9385C14.0774 13.3218 14.5795 12.8172 15.1987 12.8172C15.9078 12.8172 16.2729 13.323 16.3044 13.8542C16.3393 14.4418 15.966 15.0606 15.1987 15.0606ZM15.1987 11.6188C14.1269 11.6188 13.2225 12.3494 12.9577 13.3393H6.66601C6.40115 12.3494 5.49637 11.6188 4.42417 11.6188C3.35238 11.6188 2.44799 12.3494 2.18313 13.3393H1.19842V5.97421C1.19842 5.40375 1.66222 4.93959 2.23268 4.93959H16.6748C17.2292 4.93959 17.6831 5.37742 17.7086 5.9251H14.252C13.9212 5.9251 13.6528 6.19356 13.6528 6.52429V9.86466C13.6528 10.1954 13.9212 10.4639 14.252 10.4639H18.0761C18.9267 11.1869 18.8016 11.1311 18.8016 13.1151C18.8016 13.239 18.7009 13.3393 18.5771 13.3393H17.4406C17.1757 12.3494 16.2709 11.6188 15.1987 11.6188ZM5.54627 13.9389C5.54627 14.5533 5.04617 15.0606 4.42417 15.0606C3.80361 15.0606 3.30287 14.5544 3.30287 13.9389V13.9385C3.30287 13.3218 3.80497 12.8172 4.42417 12.8172C5.04445 12.8172 5.54627 13.3228 5.54627 13.9385V13.9389ZM17.7098 7.12352V9.26547H14.8512V7.12352H17.7098Z" fill="#AFAFAF"/>
<path d="M11.4045 5.9248H2.97566C2.64489 5.9248 2.37647 6.19326 2.37647 6.524V9.86436C2.37647 10.1951 2.64493 10.4636 2.97566 10.4636H11.4045C11.7353 10.4636 12.0037 10.1951 12.0037 9.86436V6.524C12.0037 6.19322 11.7353 5.9248 11.4045 5.9248ZM10.8053 9.26518H9.19424V7.12323H10.8053V9.26518ZM3.57489 7.12323H5.18597V9.26518H3.57489V7.12323ZM6.38439 7.12323H7.99586V9.26518H6.38439V7.12323Z" fill="#AFAFAF"/>
</g>
<defs>
<clipPath id="clip0_11156_78172">
<rect width="20" height="20" fill="white"/>
</clipPath>
</defs>
</svg>
