<svg width="20" height="20" viewBox="0 0 20 20" fill="none" xmlns="http://www.w3.org/2000/svg">
<path d="M18.5282 8.3227L15.9714 7.90082L14.6563 5.92816C13.894 4.78438 12.6181 4.10156 11.2434 4.10156H5.82344C4.70652 4.10156 3.7025 4.72223 3.20332 5.72109L2.72207 6.68328L0.445898 7.24355C0.184062 7.30801 0 7.54285 0 7.8125V12.1875C0 12.3461 0.0642578 12.4978 0.178047 12.6082L1.46711 13.8582C1.57641 13.9641 1.72273 14.0234 1.875 14.0234H2.92262C3.18625 15.0984 4.15746 15.8984 5.3125 15.8984C6.46754 15.8984 7.43879 15.0984 7.70238 14.0234H12.6101C12.8737 15.0984 13.845 15.8984 15 15.8984C16.155 15.8984 17.1263 15.0984 17.3899 14.0234H18.2422C19.2114 14.0234 20 13.2349 20 12.2656V10.057C20 9.19273 19.381 8.46332 18.5282 8.3227ZM13.6812 6.57812L14.5302 7.85156H6.83594V5.27344H11.2434C12.2254 5.27344 13.1367 5.76113 13.6812 6.57812ZM5.66406 5.28137V7.85156H4.35547L3.81105 7.1257L4.25145 6.24516C4.52703 5.69379 5.05902 5.33539 5.66406 5.28137ZM5.3125 14.7266C4.60172 14.7266 4.02344 14.1483 4.02344 13.4375C4.02344 12.7267 4.60172 12.1484 5.3125 12.1484C6.02328 12.1484 6.60156 12.7267 6.60156 13.4375C6.60156 14.1483 6.02328 14.7266 5.3125 14.7266ZM15 14.7266C14.2892 14.7266 13.7109 14.1483 13.7109 13.4375C13.7109 12.7267 14.2892 12.1484 15 12.1484C15.7108 12.1484 16.2891 12.7267 16.2891 13.4375C16.2891 14.1483 15.7108 14.7266 15 14.7266ZM18.2422 12.8516H17.3899C17.1262 11.7766 16.155 10.9766 15 10.9766C13.845 10.9766 12.8737 11.7766 12.6101 12.8516H7.70238C7.43875 11.7766 6.46754 10.9766 5.3125 10.9766C4.15746 10.9766 3.18621 11.7766 2.92262 12.8516H2.11242L1.17188 11.9395V10.8984H1.5625C1.88609 10.8984 2.14844 10.6361 2.14844 10.3125C2.14844 9.98891 1.88609 9.72656 1.5625 9.72656H1.17188V8.27172L2.88875 7.8491L3.59375 8.78906C3.70441 8.9366 3.87805 9.02344 4.0625 9.02344H15.577L18.3375 9.47891C18.6218 9.52578 18.8281 9.76894 18.8281 10.057V10.6641H18.75C18.4264 10.6641 18.1641 10.9264 18.1641 11.25C18.1641 11.5736 18.4264 11.8359 18.75 11.8359H18.8281V12.2656C18.8281 12.5887 18.5653 12.8516 18.2422 12.8516Z" fill="#AFAFAF"/>
<path d="M10.625 10.6641H9.375C9.05141 10.6641 8.78906 10.9264 8.78906 11.25C8.78906 11.5736 9.05141 11.8359 9.375 11.8359H10.625C10.9486 11.8359 11.2109 11.5736 11.2109 11.25C11.2109 10.9264 10.9486 10.6641 10.625 10.6641Z" fill="#AFAFAF"/>
</svg>
