<svg width="20" height="20" viewBox="0 0 20 20" fill="none" xmlns="http://www.w3.org/2000/svg">
<g clip-path="url(#clip0_11156_78234)">
<path d="M19.375 12.5H15C14.5027 12.5 14.0258 12.3025 13.6742 11.9508C13.3225 11.5992 13.125 11.1223 13.125 10.625V6.25C13.125 6.08424 13.1908 5.92527 13.3081 5.80806C13.4253 5.69085 13.5842 5.625 13.75 5.625C13.9158 5.625 14.0747 5.69085 14.1919 5.80806C14.3092 5.92527 14.375 6.08424 14.375 6.25V10.625C14.375 10.7908 14.4408 10.9497 14.5581 11.0669C14.6753 11.1842 14.8342 11.25 15 11.25H19.375C19.5408 11.25 19.6997 11.3158 19.8169 11.4331C19.9342 11.5503 20 11.7092 20 11.875C20 12.0408 19.9342 12.1997 19.8169 12.3169C19.6997 12.4342 19.5408 12.5 19.375 12.5Z" fill="#AFAFAF"/>
<path d="M20 11.7377L18.9625 7.09396C18.8698 6.67622 18.637 6.30275 18.3027 6.03558C17.9685 5.76841 17.5529 5.6236 17.125 5.62521H16.8062C16.6904 5.06997 16.4255 4.55675 16.0402 4.14056C15.6548 3.72437 15.1634 3.4209 14.6187 3.26271C11.6125 2.41271 12.1438 2.50021 11.1375 2.50021C10.625 1.11896 8.75 0.83771 8.75 1.87521C8.75 2.04097 8.81585 2.19994 8.93306 2.31715C9.05027 2.43436 9.20924 2.50021 9.375 2.50021C9.54076 2.50021 9.69973 2.56606 9.81694 2.68327C9.93415 2.80048 10 2.95945 10 3.12521V15.6252H7.4125C7.26857 15.0956 6.95437 14.6281 6.51838 14.2947C6.08238 13.9614 5.54881 13.7808 5 13.7808C4.45119 13.7808 3.91762 13.9614 3.48162 14.2947C3.04563 14.6281 2.73143 15.0956 2.5875 15.6252H1.25V12.5002H10.1435C10.3092 12.5002 10.4682 12.4344 10.5854 12.3172C10.7026 12.1999 10.7685 12.041 10.7685 11.8752C10.7685 11.7094 10.7026 11.5505 10.5854 11.4333C10.4682 11.3161 10.3092 11.2502 10.1435 11.2502H3.125V11.125C3.125 10.9592 3.05915 10.8003 2.94194 10.6831C2.82473 10.5658 2.66576 10.5 2.5 10.5C2.33424 10.5 2.17527 10.5658 2.05806 10.6831C1.94085 10.8003 1.875 10.9592 1.875 11.125V11.2502H1.25C0.918479 11.2502 0.600537 11.3819 0.366117 11.6163C0.131696 11.8507 0 12.1687 0 12.5002L0 15.6252C0 15.9567 0.131696 16.2747 0.366117 16.5091C0.600537 16.7435 0.918479 16.8752 1.25 16.8752H2.5875C2.73143 17.4048 3.04563 17.8723 3.48162 18.2057C3.91762 18.539 4.45119 18.7196 5 18.7196C5.54881 18.7196 6.08238 18.539 6.51838 18.2057C6.95437 17.8723 7.26857 17.4048 7.4125 16.8752H12.5875C12.7314 17.4048 13.0456 17.8723 13.4816 18.2057C13.9176 18.539 14.4512 18.7196 15 18.7196C15.5488 18.7196 16.0824 18.539 16.5184 18.2057C16.9544 17.8723 17.2686 17.4048 17.4125 16.8752H18.125C18.6223 16.8752 19.0992 16.6777 19.4508 16.326C19.8025 15.9744 20 15.4975 20 15.0002C20 11.6315 20 11.8377 20 11.7377ZM5 17.5002C4.75277 17.5002 4.5111 17.4269 4.30554 17.2895C4.09998 17.1522 3.93976 16.957 3.84515 16.7286C3.75054 16.5002 3.72579 16.2488 3.77402 16.0063C3.82225 15.7639 3.9413 15.5411 4.11612 15.3663C4.29093 15.1915 4.51366 15.0725 4.75614 15.0242C4.99861 14.976 5.24995 15.0007 5.47835 15.0954C5.70676 15.19 5.90199 15.3502 6.03934 15.5557C6.17669 15.7613 6.25 16.003 6.25 16.2502C6.25 16.5817 6.1183 16.8997 5.88388 17.1341C5.64946 17.3685 5.33152 17.5002 5 17.5002ZM11.25 3.75021C11.9312 3.75021 11.2875 3.61896 14.275 4.46271C14.5605 4.54373 14.8227 4.69136 15.04 4.89346C15.2573 5.09556 15.4235 5.34635 15.525 5.62521H11.25V3.75021ZM15 17.5002C14.7528 17.5002 14.5111 17.4269 14.3055 17.2895C14.1 17.1522 13.9398 16.957 13.8451 16.7286C13.7505 16.5002 13.7258 16.2488 13.774 16.0063C13.8222 15.7639 13.9413 15.5411 14.1161 15.3663C14.2909 15.1915 14.5137 15.0725 14.7561 15.0242C14.9986 14.976 15.2499 15.0007 15.4784 15.0954C15.7068 15.19 15.902 15.3502 16.0393 15.5557C16.1767 15.7613 16.25 16.003 16.25 16.2502C16.25 16.5817 16.1183 16.8997 15.8839 17.1341C15.6495 17.3685 15.3315 17.5002 15 17.5002ZM18.75 15.0002C18.75 15.166 18.6842 15.3249 18.5669 15.4422C18.4497 15.5594 18.2908 15.6252 18.125 15.6252H17.4125C17.2686 15.0956 16.9544 14.6281 16.5184 14.2947C16.0824 13.9614 15.5488 13.7808 15 13.7808C14.4512 13.7808 13.9176 13.9614 13.4816 14.2947C13.0456 14.6281 12.7314 15.0956 12.5875 15.6252H11.25V6.87521H17.125C17.2695 6.87168 17.4107 6.91832 17.5247 7.00721C17.6386 7.09609 17.7182 7.22172 17.75 7.36271L18.75 11.944V15.0002Z" fill="#AFAFAF"/>
</g>
<defs>
<clipPath id="clip0_11156_78234">
<rect width="20" height="20" fill="white"/>
</clipPath>
</defs>
</svg>
