<svg width="20" height="20" viewBox="0 0 20 20" fill="none" xmlns="http://www.w3.org/2000/svg">
<g clip-path="url(#clip0_11135_78246)">
<path d="M17.5116 11.762C17.2873 8.17922 16.5291 5.21523 15.8694 3.22895L17.35 2.26898C17.8379 1.95266 17.6134 1.19141 17.0312 1.19141H3.71094C1.66473 1.19141 0 2.85613 0 4.90234V15.8398C0 16.1634 0.262344 16.4258 0.585938 16.4258H1.17227C1.16262 17.7469 2.23281 18.8086 3.53516 18.8086C4.83461 18.8086 5.90875 17.7484 5.89809 16.4258C14.0408 16.421 13.5609 16.4374 13.6766 16.4129L14.7011 16.2011C14.5549 17.6053 15.662 18.8086 17.0508 18.8086C18.8568 18.8086 19.9916 16.8554 19.1125 15.2895L19.5323 15.2027C19.8008 15.1472 19.9949 14.9129 19.9996 14.6388C20.0246 13.1579 18.9244 11.9404 17.5116 11.762ZM7.00676 15.2539L6.44 11.0736C6.40062 10.783 6.15258 10.5664 5.85938 10.5664H4.76562V4.66797H8.20312V15.2539H7.00676ZM9.375 11.7773H10.5859V12.7388L9.375 14.2079V11.7773ZM11.624 13.3219C11.7105 13.217 11.7578 13.0852 11.7578 12.9492V11.7773C12.0814 11.7773 12.3438 11.515 12.3438 11.1914C12.3438 10.8678 12.0814 10.6055 11.7578 10.6055H9.375V4.66797H12.9688V15.2539H10.0314L11.624 13.3219ZM14.1406 10.5664H16.2383C16.2771 10.9485 16.3098 11.3396 16.3359 11.7383C16.0618 11.7697 15.1105 11.5767 14.1406 12.2955V10.5664H14.1406ZM16.0977 9.39453H14.1406V4.3498L14.8519 3.88867C15.306 5.30379 15.7923 7.1791 16.0977 9.39453ZM3.71094 2.36328H15.0505L13.3032 3.49609H4.17969C3.85609 3.49609 3.59375 3.75844 3.59375 4.08203V10.5664H1.17188V4.90234C1.17188 3.5023 2.3109 2.36328 3.71094 2.36328ZM1.17188 11.7383H5.3475L5.82414 15.2539H1.17188V11.7383ZM3.53516 17.6367C2.88137 17.6367 2.33371 17.1022 2.34457 16.4258H4.72586C4.73668 17.1002 4.19102 17.6367 3.53516 17.6367ZM14.1544 14.5718C14.1646 13.6556 14.9184 12.9102 15.8346 12.9102H17.1478C17.602 12.9102 18.0275 13.0885 18.346 13.4124C18.555 13.6249 18.7005 13.8825 18.7737 14.1629L14.1484 15.1188L14.1544 14.5718ZM17.0508 17.6367C16.1728 17.6367 15.6036 16.7195 15.9725 15.9384L17.8393 15.5526C18.6599 16.2776 18.1422 17.6367 17.0508 17.6367Z" fill="#AFAFAF"/>
</g>
<defs>
<clipPath id="clip0_11135_78246">
<rect width="20" height="20" fill="white"/>
</clipPath>
</defs>
</svg>
