<svg width="20" height="20" viewBox="0 0 20 20" fill="none" xmlns="http://www.w3.org/2000/svg">
<g clip-path="url(#clip0_11135_78282)">
<path d="M5.3125 19.668C2.40473 19.668 0.0390625 17.3023 0.0390625 14.3945C0.0390625 11.4868 2.40473 9.12109 5.3125 9.12109C8.22027 9.12109 10.5859 11.4868 10.5859 14.3945C10.5859 17.3023 8.22027 19.668 5.3125 19.668ZM5.3125 10.293C3.0509 10.293 1.21094 12.1329 1.21094 14.3945C1.21094 16.6561 3.0509 18.4961 5.3125 18.4961C7.5741 18.4961 9.41406 16.6561 9.41406 14.3945C9.41406 12.1329 7.5741 10.293 5.3125 10.293Z" fill="#AFAFAF"/>
<path d="M15.0012 16.1523H9.85236C9.52876 16.1523 9.26642 15.89 9.26642 15.5664C9.26642 15.2428 9.52876 14.9805 9.85236 14.9805H15.0012C15.3248 14.9805 15.5871 15.2428 15.5871 15.5664C15.5871 15.89 15.3248 16.1523 15.0012 16.1523Z" fill="#AFAFAF"/>
<path d="M19.375 17.3242C19.0514 17.3242 18.7891 17.0619 18.7891 16.7383V12.0508C18.7891 11.0815 18.0005 10.293 17.0312 10.293H5.3125C4.98891 10.293 4.72656 10.0306 4.72656 9.70703C4.72656 9.38344 4.98891 9.12109 5.3125 9.12109H17.0312C18.6467 9.12109 19.9609 10.4354 19.9609 12.0508V16.7383C19.9609 17.0619 19.6986 17.3242 19.375 17.3242Z" fill="#AFAFAF"/>
<path d="M17.0312 19.668C15.4158 19.668 14.1016 18.3537 14.1016 16.7383C14.1016 15.1229 15.4158 13.8086 17.0312 13.8086C18.6467 13.8086 19.9609 15.1229 19.9609 16.7383C19.9609 18.3537 18.6467 19.668 17.0312 19.668ZM17.0312 14.9805C16.062 14.9805 15.2734 15.769 15.2734 16.7383C15.2734 17.7075 16.062 18.4961 17.0312 18.4961C18.0005 18.4961 18.7891 17.7075 18.7891 16.7383C18.7891 15.769 18.0005 14.9805 17.0312 14.9805Z" fill="#AFAFAF"/>
<path d="M5.33203 16.7383C4.03969 16.7383 2.98828 15.6869 2.98828 14.3945C2.98828 13.1022 4.03969 12.0508 5.33203 12.0508C6.62437 12.0508 7.67578 13.1022 7.67578 14.3945C7.67578 15.6869 6.62437 16.7383 5.33203 16.7383ZM5.33203 13.2227C4.68586 13.2227 4.16016 13.7484 4.16016 14.3945C4.16016 15.0407 4.68586 15.5664 5.33203 15.5664C5.9782 15.5664 6.50391 15.0407 6.50391 14.3945C6.50391 13.7484 5.9782 13.2227 5.33203 13.2227Z" fill="#AFAFAF"/>
<path d="M16.4258 10.293H14.082C13.7584 10.293 13.4961 10.0306 13.4961 9.70703V7.36328C13.4961 7.03969 13.7584 6.77734 14.082 6.77734H16.4258C16.7494 6.77734 17.0117 7.03969 17.0117 7.36328V9.70703C17.0117 10.0306 16.7494 10.293 16.4258 10.293ZM14.668 9.12109H15.8398V7.94922H14.668V9.12109Z" fill="#AFAFAF"/>
<path d="M15.2734 7.96878C14.9498 7.96878 14.6875 7.70643 14.6875 7.38284V3.84768C14.6875 3.69116 14.7502 3.54112 14.8614 3.43104L15.7404 2.5619C15.9705 2.33433 16.3414 2.33644 16.569 2.56651C16.7965 2.79663 16.7944 3.16761 16.5643 3.39515L15.8594 4.09229V7.38284C15.8594 7.70643 15.597 7.96878 15.2734 7.96878Z" fill="#AFAFAF"/>
<path d="M19.375 12.6562H17.3438C17.0202 12.6562 16.7578 12.3939 16.7578 12.0703C16.7578 11.7467 17.0202 11.4844 17.3438 11.4844H19.375C19.6986 11.4844 19.9609 11.7467 19.9609 12.0703C19.9609 12.3939 19.6986 12.6562 19.375 12.6562Z" fill="#AFAFAF"/>
<path d="M9.98047 3.84766H2.94922C1.97996 3.84766 1.19141 3.0591 1.19141 2.08984C1.19141 1.12059 1.97996 0.332031 2.94922 0.332031H9.98047C10.9497 0.332031 11.7383 1.12059 11.7383 2.08984C11.7383 3.0591 10.9497 3.84766 9.98047 3.84766ZM2.94922 1.50391C2.62613 1.50391 2.36328 1.76676 2.36328 2.08984C2.36328 2.41293 2.62613 2.67578 2.94922 2.67578H9.98047C10.3036 2.67578 10.5664 2.41293 10.5664 2.08984C10.5664 1.76676 10.3036 1.50391 9.98047 1.50391H2.94922Z" fill="#AFAFAF"/>
<path d="M2.96875 10.8984C2.64516 10.8984 2.38281 10.6361 2.38281 10.3125V3.28125C2.38281 2.95766 2.64516 2.69531 2.96875 2.69531C3.29234 2.69531 3.55469 2.95766 3.55469 3.28125V10.3125C3.55469 10.6361 3.29234 10.8984 2.96875 10.8984Z" fill="#AFAFAF"/>
<path d="M11.7574 10.2932C11.4997 10.2932 11.2635 10.1219 11.1925 9.8613L9.43467 3.41599C9.34952 3.1038 9.53362 2.78169 9.84581 2.69654C10.1581 2.6115 10.4801 2.79548 10.5653 3.10767L12.3231 9.55298C12.4082 9.86517 12.2242 10.1873 11.9119 10.2724C11.8604 10.2865 11.8085 10.2932 11.7574 10.2932Z" fill="#AFAFAF"/>
<path d="M8.22266 10.293H5.29297C4.96937 10.293 4.70703 10.0306 4.70703 9.70703V7.36328C4.70703 7.03969 4.96937 6.77734 5.29297 6.77734H7.1875C8.08137 6.77734 8.80859 7.50457 8.80859 8.39844V9.70703C8.80859 10.0306 8.54625 10.293 8.22266 10.293ZM5.87891 9.12109H7.63672V8.39844C7.63672 8.15074 7.4352 7.94922 7.1875 7.94922H5.87891V9.12109Z" fill="#AFAFAF"/>
<path d="M5.3125 7.96875C4.98891 7.96875 4.72656 7.70641 4.72656 7.38281V5.625C4.72656 5.30141 4.98891 5.03906 5.3125 5.03906C5.63609 5.03906 5.89844 5.30141 5.89844 5.625V7.38281C5.89844 7.70641 5.63609 7.96875 5.3125 7.96875Z" fill="#AFAFAF"/>
</g>
<defs>
<clipPath id="clip0_11135_78282">
<rect width="20" height="20" fill="white"/>
</clipPath>
</defs>
</svg>
