<svg width="20" height="20" viewBox="0 0 20 20" fill="none" xmlns="http://www.w3.org/2000/svg">
<path d="M4.12109 3.33301C3.28613 3.33301 2.51465 3.75049 2.05078 4.44629L0.3125 7.04395C0.107422 7.35157 0 7.70801 0 8.07913V12.2198C0 12.791 0.383301 13.2915 0.9375 13.4306L2.55859 13.8408C2.79297 14.9761 3.79883 15.833 5 15.833C6.15723 15.833 7.124 15.0323 7.40237 13.958H13.2226C13.501 15.0323 14.4677 15.833 15.625 15.833C16.7822 15.833 17.749 15.0323 18.0274 13.958H18.75C19.4336 13.958 20 13.3916 20 12.708V10.4229C20 9.27782 19.2163 8.27688 18.1055 8.00101L14.7266 7.14163L12.2851 4.23145C11.8091 3.6626 11.1132 3.33301 10.3711 3.33301H4.12109ZM4.12109 4.58301H6.875V7.08301H1.79688L3.08594 5.14941V5.12988C3.31787 4.78076 3.70117 4.58301 4.12109 4.58301ZM8.125 4.58301H10.3711C10.7422 4.58301 11.0913 4.74658 11.3281 5.03223L13.0469 7.08301H8.125V4.58301ZM1.25 8.33301H14.2969L17.8125 9.21188C18.3716 9.35107 18.75 9.84669 18.75 10.4229V12.708H18.0274C17.749 11.6338 16.7822 10.833 15.625 10.833C14.4677 10.833 13.501 11.6338 13.2226 12.708H7.40237C7.124 11.6338 6.15723 10.833 5 10.833C3.8916 10.833 2.96143 11.5654 2.63672 12.5713L1.25 12.2198V8.33301ZM5 12.083C5.69824 12.083 6.25 12.6348 6.25 13.333C6.25 14.0313 5.69824 14.583 5 14.583C4.30176 14.583 3.75 14.0313 3.75 13.333C3.75 12.6348 4.30176 12.083 5 12.083ZM15.625 12.083C16.3232 12.083 16.875 12.6348 16.875 13.333C16.875 14.0313 16.3232 14.583 15.625 14.583C14.9268 14.583 14.375 14.0313 14.375 13.333C14.375 12.6348 14.9268 12.083 15.625 12.083Z" fill="#AFAFAF"/>
</svg>
