<svg width="20" height="20" viewBox="0 0 20 20" fill="none" xmlns="http://www.w3.org/2000/svg">
<g clip-path="url(#clip0_11156_78187)">
<path d="M19.9502 10.4635C19.9494 10.4537 19.9484 10.4442 19.9471 10.4346C19.8414 9.54323 19.5785 8.67028 19.1715 7.87041L18.3529 6.26177C17.7835 5.14287 16.6501 4.44773 15.3948 4.4473C15.3944 4.4473 15.394 4.44727 15.3937 4.44727C15.3934 4.44727 15.3931 4.4473 15.3929 4.4473H0.585954C0.262351 4.4473 -2.38419e-07 4.70966 -2.38419e-07 5.03326V13.7944C-2.38419e-07 14.118 0.262351 14.3804 0.585954 14.3804H2.57195C2.81383 15.0624 3.46514 15.5523 4.22903 15.5523C4.99292 15.5523 5.64423 15.0624 5.88611 14.3804H12.1776C12.4195 15.0624 13.0708 15.5523 13.8347 15.5523C14.5986 15.5523 15.2499 15.0624 15.4918 14.3804H19.4141C19.7377 14.3804 20 14.118 20 13.7944V11.3252C20 11.0373 19.983 10.7495 19.9502 10.4635ZM17.3084 6.79323L18.127 8.40187C18.3721 8.88337 18.5547 9.39632 18.6723 9.92372H17.096L15.9795 8.11312V5.69969C16.5478 5.85942 17.0314 6.24876 17.3084 6.79323ZM8.57548 7.70896V5.61921H11.1056V7.70896H8.57548ZM4.87346 7.70896V5.61921H7.40358V7.70896H4.87346ZM12.2775 5.61921H14.8077V7.70896H12.2775V5.61921ZM3.70155 5.61921V7.70896H1.17191V5.61921H3.70155ZM4.22903 14.3804C3.90593 14.3804 3.64308 14.1175 3.64308 13.7944C3.64308 13.4713 3.90593 13.2085 4.22903 13.2085C4.55213 13.2085 4.81498 13.4713 4.81498 13.7944C4.81498 14.1175 4.55213 14.3804 4.22903 14.3804ZM13.8347 14.3804C13.5116 14.3804 13.2487 14.1175 13.2487 13.7944C13.2487 13.4713 13.5116 13.2085 13.8347 13.2085C14.1578 13.2085 14.4207 13.4713 14.4207 13.7944C14.4207 14.1175 14.1578 14.3804 13.8347 14.3804ZM18.8281 13.2085H15.4917C15.2499 12.5264 14.5986 12.0366 13.8347 12.0366C13.0708 12.0366 12.4195 12.5264 12.1776 13.2085H5.88611C5.64423 12.5264 4.99292 12.0366 4.22903 12.0366C3.46514 12.0366 2.81383 12.5264 2.57195 13.2085H1.17191V11.0956H7.84015C8.16375 11.0956 8.42611 10.8333 8.42611 10.5097C8.42611 10.1861 8.16375 9.92372 7.84015 9.92372H1.17191V8.88087H15.0762L16.2702 10.8172C16.3769 10.9903 16.5657 11.0956 16.769 11.0956H18.8235C18.8263 11.1721 18.8281 11.2486 18.8281 11.3252V13.2085H18.8281Z" fill="#AFAFAF"/>
<path d="M11.9763 9.92383H10.5825C10.2589 9.92383 9.9965 10.1862 9.9965 10.5098C9.9965 10.8334 10.2589 11.0957 10.5825 11.0957H11.9763C12.2999 11.0957 12.5623 10.8334 12.5623 10.5098C12.5623 10.1862 12.3 9.92383 11.9763 9.92383Z" fill="#AFAFAF"/>
</g>
<defs>
<clipPath id="clip0_11156_78187">
<rect width="20" height="20" fill="white"/>
</clipPath>
</defs>
</svg>
