<svg width="20" height="20" viewBox="0 0 20 20" fill="none" xmlns="http://www.w3.org/2000/svg">
<path d="M16.4844 10C15.97 10 15.4811 10.1111 15.0404 10.3104L14.5023 9.50797C15.2647 9.07398 16.1443 8.82812 17.0703 8.82812C17.3939 8.82812 17.6562 8.56578 17.6562 8.24219V7.07031C17.6562 4.80871 15.8163 2.96875 13.5547 2.96875H12.3828C12.0592 2.96875 11.7969 3.23109 11.7969 3.55469C11.7969 3.87828 12.0592 4.14062 12.3828 4.14062H12.9688V5.3125H11.1719C10.976 5.3125 10.793 5.41043 10.6843 5.57344L10.077 6.48438H5.19641L4.90219 6.04305C4.59719 5.58562 4.08691 5.3125 3.53711 5.3125H0.585938C0.262344 5.3125 0 5.57484 0 5.89844C0 7.40383 1.14133 8.6477 2.60414 8.81016L3.39883 10.0021C1.51418 10.064 0 11.6162 0 13.5156C0 15.4541 1.57711 17.0312 3.51562 17.0312C5.01648 17.0312 6.34105 16.0703 6.83051 14.6875C7.18227 14.6875 9.96129 14.6875 10.3073 14.6875C11.0866 14.6875 11.7632 14.1329 11.916 13.3687L11.999 12.9536C12.2166 11.8657 12.7769 10.9137 13.5548 10.1991L14.068 10.9645C13.3914 11.6056 12.9688 12.5121 12.9688 13.5156C12.9688 15.4541 14.5459 17.0312 16.4844 17.0312C18.4229 17.0312 20 15.4541 20 13.5156C20 11.5771 18.4229 10 16.4844 10ZM9.29578 7.65625L8.51453 8.82812H6.75891L5.97766 7.65625H9.29578ZM3.51562 15.8594C2.22328 15.8594 1.17188 14.808 1.17188 13.5156C1.17188 12.2233 2.22328 11.1719 3.51562 11.1719C3.62133 11.1719 3.72582 11.1794 3.82906 11.1931C2.98875 11.3245 2.34375 12.0531 2.34375 12.9297C2.34375 13.8989 3.1323 14.6836 4.10156 14.6836H5.54508C5.1348 15.3907 4.36801 15.8594 3.51562 15.8594ZM4.10156 13.5156C3.77848 13.5156 3.51562 13.2528 3.51562 12.9297C3.51562 12.6066 3.77848 12.3438 4.10156 12.3438C4.42488 12.3438 6.93438 12.3438 7.2941 12.3438L7.88008 13.5156C7.82023 13.5156 4.2091 13.5156 4.10156 13.5156ZM10.8499 12.7238L10.7669 13.1388C10.7232 13.3572 10.5299 13.5156 10.3072 13.5156C9.83102 13.5156 10.2305 13.5156 9.48 13.5156C9.30129 13.5156 9.14062 13.4163 9.06074 13.2565L8.18031 11.4958C8.08105 11.2973 7.8782 11.1719 7.65625 11.1719H6.44531H5.83789C5.68082 11.1719 5.535 11.0938 5.44789 10.9631C5.18875 10.5744 3.66371 8.28688 3.41723 7.91715C3.30855 7.75418 3.12559 7.65625 2.92969 7.65625C2.16578 7.65625 1.5141 7.16645 1.27227 6.48438H3.53711C3.69418 6.48438 3.84 6.56242 3.92715 6.69312L4.39633 7.39687C4.39672 7.3975 4.39715 7.39809 4.39754 7.39871L5.95781 9.7391C6.06645 9.90207 6.24941 10 6.44531 10H8.82812C9.02402 10 9.20699 9.90207 9.31566 9.7391L10.8759 7.39871C10.8763 7.39809 10.8767 7.39746 10.8771 7.39684L11.4854 6.48047H13.5526C13.5533 6.48047 13.554 6.48047 13.5546 6.48047C13.8782 6.48047 14.1406 6.22203 14.1406 5.89844V4.19949C15.4762 4.47172 16.4843 5.65555 16.4843 7.07031V7.6832C13.72 7.93832 11.3987 9.97937 10.8499 12.7238ZM16.4844 15.8594C15.192 15.8594 14.1406 14.808 14.1406 13.5156C14.1406 12.9184 14.3655 12.3729 14.7346 11.9585L15.9977 13.842C16.178 14.1108 16.5421 14.1825 16.8107 14.0023C17.0795 13.8221 17.1513 13.4581 16.9711 13.1893L15.7073 11.3049C15.9506 11.2191 16.212 11.1719 16.4844 11.1719C17.7767 11.1719 18.8281 12.2233 18.8281 13.5156C18.8281 14.808 17.7767 15.8594 16.4844 15.8594Z" fill="#AFAFAF"/>
</svg>
