<svg width="20" height="20" viewBox="0 0 20 20" fill="none" xmlns="http://www.w3.org/2000/svg">
<g clip-path="url(#clip0_11135_78146)">
<path d="M16.667 9.99883C16.6383 9.99883 16.6123 10.0068 16.5836 10.0075L15.3168 4.51526C15.2605 4.27128 15.072 4.07938 14.8288 4.01867L12.1621 3.35198C11.8061 3.26555 11.4471 3.48252 11.358 3.83784C11.269 4.19315 11.4834 4.55384 11.838 4.64531L14.1088 5.21271L15.2849 10.3082C13.7489 11.0226 12.9981 12.7795 13.5435 14.3834C14.0889 15.9871 15.7551 16.9222 17.4082 16.5523C19.0612 16.1823 20.1698 14.6261 19.9794 12.9428C19.7891 11.2596 18.3609 9.9902 16.667 9.99883ZM16.667 15.3323C15.7781 15.3336 14.9954 14.7473 14.7468 13.894C14.4983 13.0406 14.8437 12.1257 15.5942 11.6496L16.0169 13.4823C16.0869 13.7849 16.3564 13.9991 16.667 13.999C16.7176 13.999 16.7682 13.9934 16.8177 13.9823C16.99 13.9426 17.1396 13.836 17.2334 13.686C17.3273 13.5359 17.3576 13.3547 17.3177 13.1822L16.8956 11.3555C17.9478 11.4746 18.7235 12.3951 18.6626 13.4521C18.6019 14.5092 17.7257 15.3346 16.667 15.3323Z" fill="white"/>
<path d="M13.9044 8.98888C13.927 8.94998 13.9454 8.90896 13.9591 8.86616C13.9726 8.8227 13.9815 8.7781 13.9858 8.73285C13.9916 8.71071 13.9964 8.68809 13.9998 8.66547V6.6654C13.9998 5.92905 13.4027 5.33203 12.6664 5.33203H9.33296C8.22828 5.33203 7.3329 6.22757 7.3329 7.33209V7.99878H2.6661C2.29792 7.99878 1.99941 8.29729 1.99941 8.66547C1.99941 9.03364 2.29792 9.33215 2.6661 9.33215H8.47894L8.01961 11.1709C7.96997 11.37 8.01473 11.5809 8.14103 11.7425C8.26734 11.9043 8.46103 11.9989 8.66628 11.9989H10.133L9.65622 12.6656H6.59948C6.25719 10.9889 4.70099 9.84372 2.99846 10.0158C1.29577 10.1876 0 11.621 0 13.3323C0 15.0436 1.29577 16.4769 2.99846 16.6488C4.70099 16.8208 6.25719 15.6756 6.59948 13.999H9.99965C10.215 13.999 10.4171 13.895 10.5423 13.7197L13.8757 9.05285C13.8897 9.03283 13.8923 9.00955 13.9044 8.98888ZM3.33278 15.3323C2.31452 15.3366 1.45577 14.5751 1.33793 13.5639C1.21993 12.5525 1.88059 11.6141 2.87248 11.384C3.86437 11.1538 4.87075 11.7056 5.21012 12.6656H3.33278C2.96461 12.6656 2.6661 12.9641 2.6661 13.3323C2.6661 13.7004 2.96461 13.999 3.33278 13.999H5.21012C4.9287 14.7952 4.17737 15.3289 3.33278 15.3323ZM8.66628 7.33209C8.66628 6.96392 8.96479 6.6654 9.33296 6.6654H12.6664V7.99878H8.66628V7.33209ZM9.52031 10.6655L9.85365 9.33215H12.0376L11.085 10.6655H9.52031Z" fill="white"/>
<path d="M17.3333 7.99878C17.7014 7.99878 17.9999 7.70027 17.9999 7.33209V5.99872C17.9999 5.63054 17.7014 5.33203 17.3333 5.33203C16.9651 5.33203 16.6666 5.63054 16.6666 5.99872V7.33209C16.6666 7.70027 16.9651 7.99878 17.3333 7.99878Z" fill="white"/>
</g>
<defs>
<clipPath id="clip0_11135_78146">
<rect width="20" height="20" fill="white"/>
</clipPath>
</defs>
</svg>
