<svg width="91" height="90" viewBox="0 0 91 90" fill="none" xmlns="http://www.w3.org/2000/svg">
<path d="M68.7829 43.8124C67.596 44.634 67.87 47.0533 67.87 47.0533L68.9655 47.3272H64.7155V48.8561C65.5292 48.8762 66.4071 48.8814 67.2908 48.8548H67.3013C70.4275 48.7596 73.5535 48.2771 73.6215 46.7338C73.7584 43.6297 69.9698 42.9907 68.7829 43.8124Z" fill="url(#paint0_linear_10837_77432)"/>
<path d="M12.8422 43.8124C14.0291 44.634 13.7552 47.0533 13.7552 47.0533L12.6596 47.3272H16.9097V48.8561C16.0959 48.8762 15.2181 48.8814 14.3344 48.8548H14.3239C11.1977 48.7596 8.07168 48.2771 8.00361 46.7338C7.86674 43.6297 11.6554 42.9907 12.8422 43.8124Z" fill="url(#paint1_linear_10837_77432)"/>
<path d="M70.5201 46.4342C71.5225 46.4342 72.3351 45.829 72.3351 45.0823C72.3351 44.3357 71.5225 43.7305 70.5201 43.7305C69.5177 43.7305 68.7051 44.3357 68.7051 45.0823C68.7051 45.829 69.5177 46.4342 70.5201 46.4342Z" fill="url(#paint2_linear_10837_77432)"/>
<path d="M11.1801 46.4342C12.1825 46.4342 12.9951 45.829 12.9951 45.0823C12.9951 44.3357 12.1825 43.7305 11.1801 43.7305C10.1777 43.7305 9.36511 44.3357 9.36511 45.0823C9.36511 45.829 10.1777 46.4342 11.1801 46.4342Z" fill="url(#paint3_linear_10837_77432)"/>
<path d="M58.0823 73.5146V79.5973C58.0823 81.2003 59.331 82.4998 60.8715 82.4998H67.3819C68.9224 82.4998 70.1712 81.2003 70.1712 79.5973V73.5146H58.0823Z" fill="url(#paint4_linear_10837_77432)"/>
<path opacity="0.5" d="M68.4441 73.5146C68.4441 77.481 65.3541 80.6965 61.5422 80.6965H59.1444C58.8266 80.6965 58.5263 80.6293 58.2418 80.5275C58.6161 81.6715 59.6456 82.4998 60.8715 82.4998H67.3819C68.9224 82.4998 70.1711 81.2005 70.1711 79.5973V73.5146H68.4441Z" fill="url(#paint5_linear_10837_77432)"/>
<path d="M11.4526 73.5146V79.5973C11.4526 81.2003 12.7014 82.4998 14.2419 82.4998H20.7523C22.2928 82.4998 23.5415 81.2003 23.5415 79.5973V73.5146H11.4526Z" fill="url(#paint6_linear_10837_77432)"/>
<path opacity="0.5" d="M21.8145 73.5146C21.8145 77.481 18.7245 80.6965 14.9126 80.6965H12.5151C12.1972 80.6965 11.8969 80.6293 11.6124 80.5275C11.9865 81.6715 13.0161 82.4998 14.2419 82.4998H20.7523C22.2928 82.4998 23.5416 81.2005 23.5416 79.5973V73.5146H21.8145Z" fill="url(#paint7_linear_10837_77432)"/>
<path d="M14.4991 48.3564H67.0385L72.4584 55.7229C73.2157 56.7735 73.625 58.0515 73.625 59.3649V71.8496C73.625 74.7542 71.3621 77.109 68.5708 77.109H13.0543C10.2629 77.1088 8 74.7542 8 71.8496V59.3649C8 58.0515 8.40931 56.7735 9.16663 55.7229L14.4991 48.3564Z" fill="url(#paint8_linear_10837_77432)"/>
<path d="M14.4991 48.3561L20.7465 32.8341C21.3978 31.3431 22.8266 30.3857 24.4005 30.3857H57.2248C58.7988 30.3857 60.2276 31.3431 60.8788 32.8341L67.0385 48.3561H14.4991Z" fill="url(#paint9_linear_10837_77432)"/>
<path d="M63.7383 44.6256L59.5922 33.5132C59.402 33.0034 58.9655 32.6729 58.4827 32.6729H23.1007C22.6177 32.6729 22.1814 33.0034 21.9911 33.5132L17.8449 44.6256C17.5035 45.5406 18.0877 46.5585 18.9545 46.5585H62.6287C63.4953 46.5585 64.0798 45.5408 63.7383 44.6256Z" fill="white"/>
<path opacity="0.6" d="M63.7383 44.6256L59.5921 33.5132C59.4018 33.0034 58.9655 32.6729 58.4825 32.6729H55.3959C57.2437 37.6255 54.081 43.1348 49.3901 43.1348H18.4012L17.8449 44.6256C17.5035 45.5406 18.0879 46.5585 18.9545 46.5585H62.6287C63.4955 46.5585 64.0798 45.5408 63.7383 44.6256Z" fill="url(#paint10_linear_10837_77432)"/>
<path d="M58.5701 64.5589C60.0493 63.4309 63.9568 60.697 67.3477 60.4759C68.9371 60.3722 70.3912 61.5848 70.6006 63.2275C70.7221 64.1805 70.6158 65.2551 69.8715 66.0975C68.5372 67.6077 62.2222 67.4863 59.3675 67.3489C58.5757 67.3108 57.9603 66.6315 57.9603 65.8067C57.9605 65.3121 58.1865 64.8514 58.5701 64.5589Z" fill="white"/>
<path d="M58.5701 64.5585C59.0883 64.1632 59.9152 63.5692 60.9028 62.957C60.6208 63.1584 60.3689 63.3438 60.1687 63.4967C59.7853 63.7892 59.5591 64.2497 59.5591 64.7445C59.5591 65.5693 60.1745 66.2486 60.9663 66.2867C63.2368 66.396 67.6888 66.4922 70.0903 65.7684C70.0173 65.8783 69.9631 65.9938 69.8718 66.0973C68.5376 67.6074 62.2226 67.4861 59.3679 67.3487C58.5763 67.3106 57.9607 66.6313 57.9607 65.8065C57.9605 65.3117 58.1864 64.851 58.5701 64.5585Z" fill="url(#paint11_linear_10837_77432)"/>
<path d="M23.055 64.5589C21.5758 63.4309 17.6683 60.697 14.2774 60.4759C12.6879 60.3722 11.2339 61.5848 11.0244 63.2275C10.9029 64.1805 11.0093 65.2551 11.7536 66.0975C13.0879 67.6077 19.4029 67.4863 22.2576 67.3489C23.0494 67.3108 23.6648 66.6315 23.6648 65.8067C23.6646 65.3121 23.4386 64.8514 23.055 64.5589Z" fill="white"/>
<path d="M23.055 64.5585C22.5367 64.1632 21.7099 63.5692 20.7223 62.957C21.0043 63.1584 21.2561 63.3438 21.4564 63.4967C21.8398 63.7892 22.0659 64.2497 22.0659 64.7445C22.0659 65.5693 21.4505 66.2486 20.6587 66.2867C18.3883 66.396 13.9363 66.4922 11.5348 65.7684C11.6077 65.8783 11.6619 65.9938 11.7532 66.0973C13.0875 67.6074 19.4025 67.4861 22.2572 67.3487C23.0488 67.3106 23.6644 66.6313 23.6644 65.8065C23.6645 65.3117 23.4386 64.851 23.055 64.5585Z" fill="url(#paint12_linear_10837_77432)"/>
<path d="M68.1919 53.2305L66.4592 50.6561C66.0643 50.0692 65.419 49.7197 64.7305 49.7197H16.7329C16.0099 49.7197 15.3372 50.1047 14.9502 50.7403L13.4333 53.2307C12.8706 54.4147 13.2923 56.024 14.2677 56.415L22.0797 59.5462C23.6087 60.1592 25.1914 60.4702 26.7818 60.4702H39.9711H41.6545H54.8438C56.4342 60.4702 58.0167 60.1594 59.5459 59.5462L67.3579 56.415C68.3327 56.0239 68.7544 54.4145 68.1919 53.2305Z" fill="url(#paint13_linear_10837_77432)"/>
<path d="M26.7817 59.7507C25.2747 59.7507 23.7764 59.456 22.3286 58.8751L14.5158 55.7444C14.3051 55.6602 14.1161 55.4303 13.9981 55.1144C13.811 54.6143 13.8312 54.0141 14.0521 53.5508L15.5337 51.1238C15.7951 50.6956 16.2438 50.4395 16.7328 50.4395H64.7306C65.1944 50.4395 65.6277 50.6746 65.8925 51.0695L67.6246 53.6438C67.7932 54.0141 67.8134 54.6143 67.628 55.1144C67.5082 55.4303 67.3211 55.6602 67.1103 55.7444L59.2985 58.8751C57.8499 59.456 56.3504 59.7507 54.8444 59.7507H26.7817Z" fill="url(#paint14_linear_10837_77432)"/>
<path d="M54.2142 60.3779H42.1212H39.504H27.411C26.8478 60.3779 26.4711 60.9809 26.6993 61.5164L29.6766 68.501C29.8015 68.7939 30.0805 68.9827 30.3883 68.9827H39.504H42.1212H51.2368C51.5447 68.9827 51.8237 68.7939 51.9486 68.501L54.9259 61.5164C55.1541 60.9807 54.7772 60.3779 54.2142 60.3779Z" fill="url(#paint15_linear_10837_77432)"/>
<path opacity="0.5" d="M54.2141 60.3779H51.9778C50.3044 64.3038 46.5647 66.8349 42.4372 66.8349H39.6034H36.9862H28.9663L29.6766 68.501C29.8014 68.7939 30.0804 68.9827 30.3883 68.9827H39.504H42.1211H51.2368C51.5447 68.9827 51.8237 68.7939 51.9484 68.501L54.9257 61.5164C55.1541 60.9807 54.7774 60.3779 54.2141 60.3779Z" fill="url(#paint16_linear_10837_77432)"/>
<path d="M64.6559 72.6758H16.9691L16.5009 73.2752C16.1636 73.7072 16.4589 74.3533 16.994 74.3533H40.8125H64.631C65.1661 74.3533 65.4614 73.7072 65.1241 73.2752L64.6559 72.6758Z" fill="url(#paint17_linear_10837_77432)"/>
<path opacity="0.6" d="M72.4582 55.722L67.0385 48.3555H66.7237L68.1425 50.2841C68.9216 51.3429 69.3436 52.6395 69.3436 53.973C69.3436 63.7727 61.709 71.717 52.2914 71.717H8.77306C8.50831 71.717 8.25387 71.6767 8 71.636V71.8488C8 74.7534 10.2629 77.108 13.0543 77.108H68.5708C71.3621 77.108 73.625 74.7534 73.625 71.8488V59.364C73.625 58.0507 73.2157 56.7727 72.4582 55.722Z" fill="url(#paint18_linear_10837_77432)"/>
<path opacity="0.5" d="M41.98 30.3857L24.3403 48.3559H56.9957L63.4729 39.3707C46.7273 38.572 41.98 30.3857 41.98 30.3857Z" fill="url(#paint19_linear_10837_77432)"/>
<path d="M77.9799 7.5H46.7701C43.9976 7.5 41.75 9.73294 41.75 12.4875V34.3873C41.75 37.1421 43.9976 39.375 46.7701 39.375H77.9799C80.7524 39.375 83 37.1421 83 34.3873V12.4875C83 9.73294 80.7524 7.5 77.9799 7.5Z" fill="url(#paint20_linear_10837_77432)"/>
<path d="M53.601 21.549C55.4758 21.549 56.9957 20.0389 56.9957 18.1763C56.9957 16.3136 55.4758 14.8037 53.601 14.8037C51.7262 14.8037 50.2063 16.3136 50.2063 18.1763C50.2063 20.0389 51.7262 21.549 53.601 21.549Z" fill="url(#paint21_linear_10837_77432)"/>
<path d="M53.601 23.3809C50.0208 23.3809 47.1185 26.2642 47.1185 29.8211C47.1185 30.3292 47.5331 30.7412 48.0444 30.7412H59.1572C59.6687 30.7412 60.0832 30.3292 60.0832 29.8211C60.0834 26.2642 57.1811 23.3809 53.601 23.3809Z" fill="url(#paint22_linear_10837_77432)"/>
<path d="M76.1249 18.3829H64.6666C63.6796 18.3829 62.8795 17.5881 62.8795 16.6075C62.8795 15.6268 63.6796 14.832 64.6666 14.832H76.1249C77.1119 14.832 77.9131 15.6268 77.9131 16.6075C77.9131 17.5881 77.1119 18.3829 76.1249 18.3829Z" fill="url(#paint23_linear_10837_77432)"/>
<path d="M76.1249 24.7022H64.6666C63.6796 24.7022 62.8795 23.9074 62.8795 22.9268C62.8795 21.9462 63.6796 21.1514 64.6666 21.1514H76.1249C77.1119 21.1514 77.9131 21.9462 77.9131 22.9268C77.9131 23.9074 77.1119 24.7022 76.1249 24.7022Z" fill="url(#paint24_linear_10837_77432)"/>
<path d="M76.1249 30.7511H64.6666C63.6796 30.7511 62.8795 29.9563 62.8795 28.9756C62.8795 27.995 63.6796 27.2002 64.6666 27.2002H76.1249C77.1119 27.2002 77.9131 27.995 77.9131 28.9756C77.9131 29.9563 77.1119 30.7511 76.1249 30.7511Z" fill="url(#paint25_linear_10837_77432)"/>
<path opacity="0.3" d="M78.3767 7.54004C78.3873 7.67241 78.4166 7.79916 78.4166 7.93435C78.4166 22.7838 66.3 34.8219 51.3534 34.8219H42.1869C42.051 34.8219 41.9233 34.7926 41.7902 34.7821C41.9957 37.349 44.1335 39.3753 46.7702 39.3753H77.9797C80.7523 39.3753 83 37.1422 83 34.3876V12.4878C83 9.86841 80.9604 7.74423 78.3767 7.54004Z" fill="url(#paint26_linear_10837_77432)"/>
<defs>
<linearGradient id="paint0_linear_10837_77432" x1="69.1701" y1="43.7415" x2="69.1701" y2="48.9315" gradientUnits="userSpaceOnUse">
<stop stop-color="#5F5F60"/>
<stop offset="1" stop-color="#282828"/>
</linearGradient>
<linearGradient id="paint1_linear_10837_77432" x1="12.4551" y1="43.7415" x2="12.4551" y2="48.9315" gradientUnits="userSpaceOnUse">
<stop stop-color="#5F5F60"/>
<stop offset="1" stop-color="#282828"/>
</linearGradient>
<linearGradient id="paint2_linear_10837_77432" x1="71.3413" y1="43.7736" x2="70.0645" y2="45.8061" gradientUnits="userSpaceOnUse">
<stop stop-color="white"/>
<stop offset="0.9974" stop-color="white" stop-opacity="0"/>
</linearGradient>
<linearGradient id="paint3_linear_10837_77432" x1="10.357" y1="43.7736" x2="11.6357" y2="45.8061" gradientUnits="userSpaceOnUse">
<stop stop-color="white"/>
<stop offset="0.9974" stop-color="white" stop-opacity="0"/>
</linearGradient>
<linearGradient id="paint4_linear_10837_77432" x1="64.1263" y1="73.9423" x2="64.1263" y2="82.5973" gradientUnits="userSpaceOnUse">
<stop stop-color="#5F5F60"/>
<stop offset="1" stop-color="#282828"/>
</linearGradient>
<linearGradient id="paint5_linear_10837_77432" x1="64.2069" y1="73.9423" x2="64.2069" y2="82.5973" gradientUnits="userSpaceOnUse">
<stop stop-color="#5F5F60"/>
<stop offset="1" stop-color="#282828"/>
</linearGradient>
<linearGradient id="paint6_linear_10837_77432" x1="17.4969" y1="73.9423" x2="17.4969" y2="82.5973" gradientUnits="userSpaceOnUse">
<stop stop-color="#5F5F60"/>
<stop offset="1" stop-color="#282828"/>
</linearGradient>
<linearGradient id="paint7_linear_10837_77432" x1="17.5776" y1="73.9423" x2="17.5776" y2="82.5973" gradientUnits="userSpaceOnUse">
<stop stop-color="#5F5F60"/>
<stop offset="1" stop-color="#282828"/>
</linearGradient>
<linearGradient id="paint8_linear_10837_77432" x1="40.8125" y1="49.2619" x2="40.8125" y2="72.3975" gradientUnits="userSpaceOnUse">
<stop stop-color="#76CCF8"/>
<stop offset="1" stop-color="#4981F8"/>
</linearGradient>
<linearGradient id="paint9_linear_10837_77432" x1="40.7694" y1="48.0634" x2="40.7694" y2="31.1978" gradientUnits="userSpaceOnUse">
<stop stop-color="#76CCF8"/>
<stop offset="1" stop-color="#4981F8"/>
</linearGradient>
<linearGradient id="paint10_linear_10837_77432" x1="17.7463" y1="39.6162" x2="63.8375" y2="39.6162" gradientUnits="userSpaceOnUse">
<stop stop-color="#EEF4FF"/>
<stop offset="1" stop-color="#5BDBFD"/>
</linearGradient>
<linearGradient id="paint11_linear_10837_77432" x1="70.0906" y1="65.1907" x2="57.9613" y2="65.1907" gradientUnits="userSpaceOnUse">
<stop stop-color="#D0E4FF"/>
<stop offset="1" stop-color="#C2CFFD"/>
</linearGradient>
<linearGradient id="paint12_linear_10837_77432" x1="11.5344" y1="65.1907" x2="23.6657" y2="65.1907" gradientUnits="userSpaceOnUse">
<stop stop-color="#D0E4FF"/>
<stop offset="1" stop-color="#C2CFFD"/>
</linearGradient>
<linearGradient id="paint13_linear_10837_77432" x1="40.8126" y1="46.5035" x2="40.8126" y2="57.8867" gradientUnits="userSpaceOnUse">
<stop stop-color="#197BFF"/>
<stop offset="0.3295" stop-color="#257CFD" stop-opacity="0.671"/>
<stop offset="0.9218" stop-color="#4480F9" stop-opacity="0.078"/>
<stop offset="1" stop-color="#4981F8" stop-opacity="0"/>
</linearGradient>
<linearGradient id="paint14_linear_10837_77432" x1="43.295" y1="43.8785" x2="40.8687" y2="54.1591" gradientUnits="userSpaceOnUse">
<stop stop-color="white"/>
<stop offset="0.9974" stop-color="white" stop-opacity="0"/>
</linearGradient>
<linearGradient id="paint15_linear_10837_77432" x1="40.8126" y1="60.7293" x2="40.8126" y2="66.1499" gradientUnits="userSpaceOnUse">
<stop stop-color="#5F5F60"/>
<stop offset="1" stop-color="#282828"/>
</linearGradient>
<linearGradient id="paint16_linear_10837_77432" x1="41.9807" y1="60.7293" x2="41.9807" y2="66.1499" gradientUnits="userSpaceOnUse">
<stop stop-color="#5F5F60"/>
<stop offset="1" stop-color="#282828"/>
</linearGradient>
<linearGradient id="paint17_linear_10837_77432" x1="40.8125" y1="72.744" x2="40.8125" y2="73.8015" gradientUnits="userSpaceOnUse">
<stop stop-color="#5F5F60"/>
<stop offset="1" stop-color="#282828"/>
</linearGradient>
<linearGradient id="paint18_linear_10837_77432" x1="40.8125" y1="49.2611" x2="40.8125" y2="72.3967" gradientUnits="userSpaceOnUse">
<stop stop-color="#EEF4FF"/>
<stop offset="1" stop-color="#5BDBFD"/>
</linearGradient>
<linearGradient id="paint19_linear_10837_77432" x1="44.3507" y1="42.5322" x2="49.1432" y2="28.1641" gradientUnits="userSpaceOnUse">
<stop stop-color="#197BFF" stop-opacity="0"/>
<stop offset="1" stop-color="#197BFF"/>
</linearGradient>
<linearGradient id="paint20_linear_10837_77432" x1="41.75" y1="23.4375" x2="83" y2="23.4375" gradientUnits="userSpaceOnUse">
<stop stop-color="#FFE048"/>
<stop offset="1" stop-color="#F4C829"/>
</linearGradient>
<linearGradient id="paint21_linear_10837_77432" x1="50.2063" y1="18.1765" x2="56.9957" y2="18.1765" gradientUnits="userSpaceOnUse">
<stop stop-color="#FF97A9"/>
<stop offset="1" stop-color="#F9374C"/>
</linearGradient>
<linearGradient id="paint22_linear_10837_77432" x1="47.1182" y1="27.0604" x2="60.0838" y2="27.0604" gradientUnits="userSpaceOnUse">
<stop stop-color="#FF97A9"/>
<stop offset="1" stop-color="#F9374C"/>
</linearGradient>
<linearGradient id="paint23_linear_10837_77432" x1="62.8793" y1="16.6073" x2="77.9131" y2="16.6073" gradientUnits="userSpaceOnUse">
<stop stop-color="#7F6C7F"/>
<stop offset="1" stop-color="#5A465B"/>
</linearGradient>
<linearGradient id="paint24_linear_10837_77432" x1="62.8793" y1="22.9272" x2="77.9131" y2="22.9272" gradientUnits="userSpaceOnUse">
<stop stop-color="#7F6C7F"/>
<stop offset="1" stop-color="#5A465B"/>
</linearGradient>
<linearGradient id="paint25_linear_10837_77432" x1="62.8793" y1="28.9758" x2="77.9131" y2="28.9758" gradientUnits="userSpaceOnUse">
<stop stop-color="#7F6C7F"/>
<stop offset="1" stop-color="#5A465B"/>
</linearGradient>
<linearGradient id="paint26_linear_10837_77432" x1="41.7894" y1="23.4584" x2="83" y2="23.4584" gradientUnits="userSpaceOnUse">
<stop stop-color="#FFE048"/>
<stop offset="1" stop-color="#F4C829"/>
</linearGradient>
</defs>
</svg>
