<svg width="91" height="90" viewBox="0 0 91 90" fill="none" xmlns="http://www.w3.org/2000/svg">
<path d="M72.6712 44.9183C71.5182 45.7165 71.7843 48.0666 71.7843 48.0666L72.8485 48.3326H68.72V49.8178C69.5105 49.8371 70.3634 49.8424 71.2216 49.8165H71.2317C74.2685 49.7241 77.3052 49.2553 77.3714 47.7561C77.5045 44.7409 73.8241 44.1201 72.6712 44.9183Z" fill="url(#paint0_linear_10837_77401)"/>
<path d="M18.3288 44.9183C19.4817 45.7165 19.2156 48.0666 19.2156 48.0666L18.1514 48.3326H22.28V49.8178C21.4895 49.8371 20.6365 49.8424 19.7783 49.8165H19.7682C16.7315 49.7241 13.6947 49.2553 13.6285 47.7561C13.4954 44.7409 17.1758 44.1201 18.3288 44.9183Z" fill="url(#paint1_linear_10837_77401)"/>
<path d="M74.3581 47.4657C75.3315 47.4657 76.1206 46.8772 76.1206 46.1513C76.1206 45.4254 75.3315 44.8369 74.3581 44.8369C73.3847 44.8369 72.5956 45.4254 72.5956 46.1513C72.5956 46.8772 73.3847 47.4657 74.3581 47.4657Z" fill="url(#paint2_linear_10837_77401)"/>
<path d="M16.715 47.4657C17.6884 47.4657 18.4775 46.8772 18.4775 46.1513C18.4775 45.4254 17.6884 44.8369 16.715 44.8369C15.7416 44.8369 14.9525 45.4254 14.9525 46.1513C14.9525 46.8772 15.7416 47.4657 16.715 47.4657Z" fill="url(#paint3_linear_10837_77401)"/>
<path d="M62.2764 73.7715V79.6804C62.2764 81.2376 63.4895 82.4998 64.9859 82.4998H71.3103C72.8067 82.4998 74.0199 81.2374 74.0199 79.6804V73.7715H62.2764Z" fill="url(#paint4_linear_10837_77401)"/>
<path opacity="0.5" d="M72.3421 73.7715C72.3421 77.6246 69.3402 80.7482 65.6375 80.7482H63.3083C62.9997 80.7482 62.708 80.6829 62.4314 80.5839C62.7948 81.6952 63.7949 82.5 64.9859 82.5H71.3103C72.8067 82.5 74.0198 81.2377 74.0198 79.6805V73.7717L72.3421 73.7715Z" fill="url(#paint5_linear_10837_77401)"/>
<path d="M16.979 73.7715V79.6804C16.979 81.2376 18.1921 82.4998 19.6886 82.4998H26.0129C27.5094 82.4998 28.7225 81.2374 28.7225 79.6804V73.7715H16.979Z" fill="url(#paint6_linear_10837_77401)"/>
<path opacity="0.5" d="M27.0447 73.7715C27.0447 77.6246 24.0428 80.7482 20.3401 80.7482H18.011C17.7023 80.7482 17.4106 80.6829 17.134 80.5839C17.4974 81.6952 18.4975 82.5 19.6885 82.5H26.0129C27.5093 82.5 28.7225 81.2377 28.7225 79.6805V73.7717L27.0447 73.7715Z" fill="url(#paint7_linear_10837_77401)"/>
<path d="M19.9383 49.332H70.9766L76.2416 56.488C76.9773 57.5087 77.375 58.7503 77.375 60.0261V72.1542C77.375 74.9758 75.1768 77.2632 72.4651 77.2632H18.5349C15.8232 77.2632 13.625 74.9758 13.625 72.1542V60.0261C13.625 58.7502 14.0227 57.5087 14.7584 56.4882L19.9383 49.332Z" fill="url(#paint8_linear_10837_77401)"/>
<path d="M19.9384 49.3318L26.0072 34.2533C26.6398 32.805 28.0279 31.875 29.5567 31.875H61.4432C62.9722 31.875 64.3601 32.805 64.9929 34.2534L70.9768 49.332L19.9384 49.3318Z" fill="url(#paint9_linear_10837_77401)"/>
<path d="M67.7709 45.709L63.743 34.914C63.5583 34.4188 63.1342 34.0977 62.6653 34.0977H28.2943C27.8251 34.0977 27.4012 34.4187 27.2163 34.914L23.1886 45.709C22.857 46.5979 23.4245 47.5866 24.2666 47.5866H66.6929C67.5348 47.5866 68.1024 46.5979 67.7709 45.709Z" fill="white"/>
<path opacity="0.6" d="M67.7709 45.709L63.743 34.914C63.5581 34.4188 63.1342 34.0977 62.6652 34.0977H59.6669C61.4621 38.9087 58.3897 44.2607 53.8327 44.2607H23.729L23.1886 45.709C22.8569 46.5979 23.4247 47.5866 24.2666 47.5866H66.6929C67.5348 47.5866 68.1024 46.5977 67.7709 45.709Z" fill="url(#paint10_linear_10837_77401)"/>
<path d="M62.7501 65.072C64.1871 63.9762 67.9829 61.3203 71.2771 61.1056C72.821 61.0049 74.2336 62.1828 74.437 63.7786C74.5552 64.7045 74.4518 65.7483 73.7287 66.5667C72.4325 68.0337 66.2978 67.9158 63.5247 67.7823C62.7556 67.7454 62.1578 67.0854 62.1578 66.2842C62.158 65.8036 62.3776 65.356 62.7501 65.072Z" fill="white"/>
<path d="M62.7502 65.0723C63.2536 64.6885 64.0569 64.1112 65.0161 63.5166C64.7422 63.7124 64.4975 63.8923 64.3031 64.0407C63.9305 64.3247 63.711 64.7723 63.711 65.2528C63.711 66.054 64.3087 66.714 65.0778 66.751C67.2834 66.8571 71.6083 66.9507 73.9411 66.2475C73.8703 66.3542 73.8176 66.4665 73.7289 66.567C72.4327 68.034 66.2981 67.9161 63.525 67.7826C62.7558 67.7457 62.1581 67.0857 62.1581 66.2845C62.1581 65.8039 62.3776 65.3564 62.7502 65.0723Z" fill="url(#paint11_linear_10837_77401)"/>
<path d="M28.2498 65.072C26.8128 63.9762 23.0171 61.3203 19.7229 61.1056C18.179 61.0049 16.7664 62.1828 16.5629 63.7786C16.4448 64.7045 16.5481 65.7483 17.2713 66.5667C18.5675 68.0337 24.7021 67.9158 27.4752 67.7823C28.2444 67.7454 28.8421 67.0854 28.8421 66.2842C28.8419 65.8036 28.6224 65.356 28.2498 65.072Z" fill="white"/>
<path d="M28.2498 65.0723C27.7463 64.6885 26.9429 64.1112 25.9838 63.5166C26.2578 63.7124 26.5025 63.8923 26.6969 64.0407C27.0695 64.3247 27.289 64.7723 27.289 65.2528C27.289 66.054 26.6913 66.714 25.9222 66.751C23.7166 66.8571 19.3917 66.9507 17.0588 66.2475C17.1297 66.3542 17.1824 66.4665 17.2711 66.567C18.5673 68.034 24.7019 67.9161 27.475 67.7826C28.2442 67.7457 28.8419 67.0857 28.8419 66.2845C28.8419 65.8039 28.6223 65.3564 28.2498 65.0723Z" fill="url(#paint12_linear_10837_77401)"/>
<path d="M72.097 54.0667L70.4138 51.5658C70.0302 50.9956 69.4034 50.6562 68.7344 50.6562H22.1084C21.406 50.6562 20.7526 51.0303 20.3766 51.6476L18.9031 54.0667C18.3565 55.2168 18.7662 56.7802 19.7135 57.1601L27.3021 60.2019C28.7875 60.7974 30.325 61.0994 31.8698 61.0994H44.6823H46.3175H59.1299C60.6749 61.0994 62.2122 60.7974 63.6976 60.2019L71.2863 57.1601C72.2339 56.7804 72.6436 55.217 72.097 54.0667Z" fill="url(#paint13_linear_10837_77401)"/>
<path d="M31.87 60.4008C30.4062 60.4008 28.9504 60.1145 27.544 59.5502L19.9546 56.5089C19.7498 56.4272 19.5663 56.2037 19.4517 55.8969C19.2698 55.4111 19.2895 54.828 19.5042 54.378L20.9434 52.0203C21.1973 51.6045 21.6333 51.3555 22.1082 51.3555H68.7346C69.1851 51.3555 69.6061 51.5838 69.8633 51.9675L71.5459 54.4683C71.7098 54.828 71.7295 55.4111 71.5491 55.8969C71.4329 56.2038 71.251 56.4272 71.0463 56.5089L63.4576 59.5502C62.0502 60.1143 60.5939 60.4008 59.1308 60.4008H31.87Z" fill="url(#paint14_linear_10837_77401)"/>
<path d="M58.5184 61.0098H46.7712H44.2287H32.4813C31.9341 61.0098 31.5681 61.5955 31.7899 62.1158L34.6821 68.9009C34.8034 69.1853 35.0744 69.3687 35.3734 69.3687H44.2287H46.771H55.6262C55.9253 69.3687 56.1962 69.1853 56.3176 68.9009L59.2097 62.1158C59.4317 61.5955 59.0656 61.0098 58.5184 61.0098Z" fill="url(#paint15_linear_10837_77401)"/>
<path opacity="0.5" d="M58.5187 61.0098H56.3464C54.7207 64.8235 51.0879 67.2822 47.0784 67.2822H44.3256H41.7832H33.9924L34.6822 68.9007C34.8036 69.1851 35.0745 69.3687 35.3736 69.3687H44.2288H46.7711H55.6264C55.9254 69.3687 56.1964 69.1853 56.3177 68.9009L59.2099 62.1158C59.4319 61.5953 59.0659 61.0098 58.5187 61.0098Z" fill="url(#paint16_linear_10837_77401)"/>
<path d="M68.6621 72.957H22.3379L21.8833 73.5394C21.5555 73.959 21.8426 74.5866 22.3623 74.5866H45.5H68.6379C69.1576 74.5866 69.4447 73.959 69.1169 73.5394L68.6621 72.957Z" fill="url(#paint17_linear_10837_77401)"/>
<path opacity="0.6" d="M76.2416 56.488L70.9766 49.332H70.6707L72.0491 51.2055C72.8058 52.2342 73.2159 53.4936 73.2159 54.789C73.2159 64.3088 65.7995 72.0261 56.6508 72.0261H14.3759C14.1187 72.0261 13.8716 71.9869 13.625 71.9473V72.1542C13.625 74.9758 15.8232 77.2632 18.5349 77.2632H72.4653C75.1769 77.2632 77.3752 74.9758 77.3752 72.1542V60.0261C77.375 58.7502 76.9773 57.5085 76.2416 56.488Z" fill="url(#paint18_linear_10837_77401)"/>
<path d="M60.5001 22.5C60.5001 13.974 53.3867 7.10929 44.7709 7.51729C37.224 7.87467 30.9891 14.0179 30.5287 21.5594C30.1856 27.1834 32.9434 32.19 37.2544 35.0322C40.1062 36.9122 42.5143 39.3904 44.2222 42.3486L44.6207 43.0388C44.9961 43.689 45.9345 43.689 46.3101 43.0388L46.6699 42.4157C48.3439 39.5162 50.6332 36.988 53.4684 35.2073C57.6921 32.5544 60.5001 27.856 60.5001 22.5Z" fill="url(#paint19_linear_10837_77401)"/>
<path d="M45.5 30.6058C49.9766 30.6058 53.6057 26.9768 53.6057 22.5002C53.6057 18.0235 49.9766 14.3945 45.5 14.3945C41.0234 14.3945 37.3944 18.0235 37.3944 22.5002C37.3944 26.9768 41.0234 30.6058 45.5 30.6058Z" fill="url(#paint20_linear_10837_77401)"/>
<path d="M45.5 28.4027C48.7599 28.4027 51.4025 25.76 51.4025 22.5002C51.4025 19.2403 48.7599 16.5977 45.5 16.5977C42.2402 16.5977 39.5975 19.2403 39.5975 22.5002C39.5975 25.76 42.2402 28.4027 45.5 28.4027Z" fill="#FFEBED"/>
<defs>
<linearGradient id="paint0_linear_10837_77401" x1="73.0475" y1="44.8502" x2="73.0475" y2="49.8921" gradientUnits="userSpaceOnUse">
<stop stop-color="#5F5F60"/>
<stop offset="1" stop-color="#282828"/>
</linearGradient>
<linearGradient id="paint1_linear_10837_77401" x1="17.9525" y1="44.8502" x2="17.9525" y2="49.8921" gradientUnits="userSpaceOnUse">
<stop stop-color="#5F5F60"/>
<stop offset="1" stop-color="#282828"/>
</linearGradient>
<linearGradient id="paint2_linear_10837_77401" x1="75.1568" y1="44.88" x2="73.9156" y2="46.8544" gradientUnits="userSpaceOnUse">
<stop stop-color="white"/>
<stop offset="0.9974" stop-color="white" stop-opacity="0"/>
</linearGradient>
<linearGradient id="paint3_linear_10837_77401" x1="15.9144" y1="44.88" x2="17.1556" y2="46.8544" gradientUnits="userSpaceOnUse">
<stop stop-color="white"/>
<stop offset="0.9974" stop-color="white" stop-opacity="0"/>
</linearGradient>
<linearGradient id="paint4_linear_10837_77401" x1="68.1481" y1="74.1881" x2="68.1481" y2="82.5956" gradientUnits="userSpaceOnUse">
<stop stop-color="#5F5F60"/>
<stop offset="1" stop-color="#282828"/>
</linearGradient>
<linearGradient id="paint5_linear_10837_77401" x1="68.225" y1="74.1881" x2="68.225" y2="82.5956" gradientUnits="userSpaceOnUse">
<stop stop-color="#5F5F60"/>
<stop offset="1" stop-color="#282828"/>
</linearGradient>
<linearGradient id="paint6_linear_10837_77401" x1="22.85" y1="74.1881" x2="22.85" y2="82.5956" gradientUnits="userSpaceOnUse">
<stop stop-color="#5F5F60"/>
<stop offset="1" stop-color="#282828"/>
</linearGradient>
<linearGradient id="paint7_linear_10837_77401" x1="22.9287" y1="74.1881" x2="22.9287" y2="82.5956" gradientUnits="userSpaceOnUse">
<stop stop-color="#5F5F60"/>
<stop offset="1" stop-color="#282828"/>
</linearGradient>
<linearGradient id="paint8_linear_10837_77401" x1="45.5" y1="50.2127" x2="45.5" y2="72.6865" gradientUnits="userSpaceOnUse">
<stop stop-color="#76CCF8"/>
<stop offset="1" stop-color="#4981F8"/>
</linearGradient>
<linearGradient id="paint9_linear_10837_77401" x1="45.4569" y1="49.0463" x2="45.4569" y2="32.6644" gradientUnits="userSpaceOnUse">
<stop stop-color="#76CCF8"/>
<stop offset="1" stop-color="#4981F8"/>
</linearGradient>
<linearGradient id="paint10_linear_10837_77401" x1="23.0919" y1="40.8417" x2="67.8669" y2="40.8417" gradientUnits="userSpaceOnUse">
<stop stop-color="#EEF4FF"/>
<stop offset="1" stop-color="#5BDBFD"/>
</linearGradient>
<linearGradient id="paint11_linear_10837_77401" x1="73.9419" y1="65.6869" x2="62.1575" y2="65.6869" gradientUnits="userSpaceOnUse">
<stop stop-color="#D0E4FF"/>
<stop offset="1" stop-color="#C2CFFD"/>
</linearGradient>
<linearGradient id="paint12_linear_10837_77401" x1="17.06" y1="65.6869" x2="28.8425" y2="65.6869" gradientUnits="userSpaceOnUse">
<stop stop-color="#D0E4FF"/>
<stop offset="1" stop-color="#C2CFFD"/>
</linearGradient>
<linearGradient id="paint13_linear_10837_77401" x1="45.5" y1="47.5329" x2="45.5" y2="58.5897" gradientUnits="userSpaceOnUse">
<stop stop-color="#197BFF"/>
<stop offset="0.3295" stop-color="#257CFD" stop-opacity="0.671"/>
<stop offset="0.9218" stop-color="#4480F9" stop-opacity="0.078"/>
<stop offset="1" stop-color="#4981F8" stop-opacity="0"/>
</linearGradient>
<linearGradient id="paint14_linear_10837_77401" x1="47.9112" y1="44.981" x2="45.5543" y2="54.9692" gradientUnits="userSpaceOnUse">
<stop stop-color="white"/>
<stop offset="0.9974" stop-color="white" stop-opacity="0"/>
</linearGradient>
<linearGradient id="paint15_linear_10837_77401" x1="45.4999" y1="61.3516" x2="45.4999" y2="66.6166" gradientUnits="userSpaceOnUse">
<stop stop-color="#5F5F60"/>
<stop offset="1" stop-color="#282828"/>
</linearGradient>
<linearGradient id="paint16_linear_10837_77401" x1="46.6344" y1="61.3516" x2="46.6344" y2="66.6166" gradientUnits="userSpaceOnUse">
<stop stop-color="#5F5F60"/>
<stop offset="1" stop-color="#282828"/>
</linearGradient>
<linearGradient id="paint17_linear_10837_77401" x1="45.5" y1="73.024" x2="45.5" y2="74.0496" gradientUnits="userSpaceOnUse">
<stop stop-color="#5F5F60"/>
<stop offset="1" stop-color="#282828"/>
</linearGradient>
<linearGradient id="paint18_linear_10837_77401" x1="45.5" y1="50.2125" x2="45.5" y2="72.6863" gradientUnits="userSpaceOnUse">
<stop stop-color="#EEF4FF"/>
<stop offset="1" stop-color="#5BDBFD"/>
</linearGradient>
<linearGradient id="paint19_linear_10837_77401" x1="42.9238" y1="8.47879" x2="49.0307" y2="41.7075" gradientUnits="userSpaceOnUse">
<stop stop-color="#FF7044"/>
<stop offset="1" stop-color="#F92814"/>
</linearGradient>
<linearGradient id="paint20_linear_10837_77401" x1="51.23" y1="27.9508" x2="40.1994" y2="17.4564" gradientUnits="userSpaceOnUse">
<stop stop-color="#FFC200"/>
<stop offset="0.268" stop-color="#FFBB00"/>
<stop offset="0.659" stop-color="#FFA801"/>
<stop offset="1" stop-color="#FF9102"/>
</linearGradient>
</defs>
</svg>
