<svg width="91" height="90" viewBox="0 0 91 90" fill="none" xmlns="http://www.w3.org/2000/svg">
<g id="car_9343049 1">
<g id="Group">
<g id="Group_2">
<path id="Vector" d="M79.8603 74.9109H40.3064C38.5724 74.9109 37.1667 73.5052 37.1667 71.7712V20.7588C37.1667 19.0248 38.5724 17.6191 40.3064 17.6191H79.8603C81.5943 17.6191 83 19.0248 83 20.7588V71.7712C83 73.5052 81.5943 74.9109 79.8603 74.9109Z" fill="url(#paint0_linear_10837_77473)"/>
<path id="Vector_2" d="M40.2223 69.6713V22.8597C40.2223 21.7739 41.1026 20.8936 42.1884 20.8936H77.9784C79.0642 20.8936 79.9445 21.7739 79.9445 22.8597V69.6715C79.9445 70.7573 79.0642 71.6376 77.9784 71.6376H42.1884C41.1026 71.6374 40.2223 70.7573 40.2223 69.6713Z" fill="#F7F7F7"/>
<path id="Vector_3" d="M48.6307 20.8931H71.5473V18.0346C71.5473 16.9012 70.6284 15.9823 69.4949 15.9823H66.6423C66.6423 12.3661 63.7107 9.43457 60.0946 9.43457C56.4785 9.43457 53.5469 12.3659 53.5469 15.9823H50.6829C49.5494 15.9823 48.6305 16.9012 48.6305 18.0346L48.6307 20.8931Z" fill="url(#paint1_linear_10837_77473)"/>
<path id="Vector_4" opacity="0.5" d="M71.5474 20.8936L48.6251 25.8042V20.8936H71.5474Z" fill="url(#paint2_linear_10837_77473)"/>
<g id="Group_3">
<path id="Vector_5" d="M49.1881 29.7822H46.4114C44.8865 29.7822 43.6503 31.0184 43.6503 32.5433V35.32C43.6503 36.8448 44.8865 38.081 46.4114 38.081H49.1881C50.7128 38.081 51.949 36.8448 51.949 35.32V32.5433C51.9492 31.0184 50.713 29.7822 49.1881 29.7822Z" fill="url(#paint3_linear_10837_77473)"/>
<g id="Group_4">
<path id="Vector_6" d="M46.4886 35.8985L45.1774 34.5873C44.8154 34.2252 44.8154 33.6382 45.1774 33.2761C45.5395 32.914 46.1266 32.914 46.4886 33.2761L47.1441 33.9316L49.1108 31.9649C49.4729 31.6028 50.0599 31.6028 50.422 31.9649C50.7841 32.327 50.7841 32.914 50.422 33.2761L47.7996 35.8985C47.4377 36.2605 46.8507 36.2605 46.4886 35.8985Z" fill="#E1FFF4"/>
</g>
<path id="Vector_7" d="M64.6967 30.8867H55.4974C54.7821 30.8867 54.2021 31.4667 54.2021 32.182C54.2021 32.8973 54.7821 33.4772 55.4974 33.4772H64.6967C65.412 33.4772 65.992 32.8973 65.992 32.182C65.9922 31.4667 65.4122 30.8867 64.6967 30.8867Z" fill="url(#paint4_linear_10837_77473)"/>
<path id="Vector_8" d="M75.232 35.4902H55.4974C54.7821 35.4902 54.2021 36.0702 54.2021 36.7855C54.2021 37.5008 54.7821 38.0807 55.4974 38.0807H75.232C75.9473 38.0807 76.5272 37.5008 76.5272 36.7855C76.5274 36.0702 75.9475 35.4902 75.232 35.4902Z" fill="url(#paint5_linear_10837_77473)"/>
</g>
<g id="Group_5">
<path id="Vector_9" d="M49.1881 42.1152H46.4114C44.8865 42.1152 43.6503 43.3514 43.6503 44.8764V47.653C43.6503 49.1778 44.8865 50.414 46.4114 50.414H49.1881C50.7128 50.414 51.949 49.1778 51.949 47.653V44.8764C51.9492 43.3514 50.713 42.1152 49.1881 42.1152Z" fill="url(#paint6_linear_10837_77473)"/>
<g id="Group_6">
<path id="Vector_10" d="M46.4886 48.2315L45.1774 46.9203C44.8154 46.5582 44.8154 45.9712 45.1774 45.6091C45.5395 45.247 46.1266 45.247 46.4886 45.6091L47.1441 46.2646L49.1108 44.2979C49.4729 43.9359 50.0599 43.9359 50.422 44.2979C50.7841 44.66 50.7841 45.247 50.422 45.6091L47.7996 48.2315C47.4377 48.5934 46.8507 48.5934 46.4886 48.2315Z" fill="#E1FFF4"/>
</g>
<path id="Vector_11" d="M64.6967 43.2197H55.4974C54.7821 43.2197 54.2021 43.7997 54.2021 44.515C54.2021 45.2303 54.7821 45.8102 55.4974 45.8102H64.6967C65.412 45.8102 65.992 45.2303 65.992 44.515C65.9922 43.7997 65.4122 43.2197 64.6967 43.2197Z" fill="url(#paint7_linear_10837_77473)"/>
<path id="Vector_12" d="M75.232 47.8232H55.4974C54.7821 47.8232 54.2021 48.4032 54.2021 49.1185C54.2021 49.8338 54.7821 50.4137 55.4974 50.4137H75.232C75.9473 50.4137 76.5272 49.8338 76.5272 49.1185C76.5274 48.4032 75.9475 47.8232 75.232 47.8232Z" fill="url(#paint8_linear_10837_77473)"/>
</g>
<g id="Group_7">
<path id="Vector_13" d="M49.1881 54.4492H46.4114C44.8865 54.4492 43.6503 55.6854 43.6503 57.2103V59.987C43.6503 61.5118 44.8865 62.748 46.4114 62.748H49.1881C50.7128 62.748 51.949 61.5118 51.949 59.987V57.2103C51.9492 55.6852 50.713 54.4492 49.1881 54.4492Z" fill="url(#paint9_linear_10837_77473)"/>
<g id="Group_8">
<path id="Vector_14" d="M46.4886 60.5655L45.1774 59.2543C44.8154 58.8922 44.8154 58.3051 45.1774 57.9431C45.5395 57.581 46.1266 57.581 46.4886 57.9431L47.1441 58.5986L49.1108 56.6319C49.4729 56.2698 50.0599 56.2698 50.422 56.6319C50.7841 56.994 50.7841 57.581 50.422 57.9431L47.7996 60.5655C47.4377 60.9275 46.8507 60.9275 46.4886 60.5655Z" fill="#E1FFF4"/>
</g>
<path id="Vector_15" d="M64.6967 55.5537H55.4974C54.7821 55.5537 54.2021 56.1336 54.2021 56.849C54.2021 57.5643 54.7821 58.1442 55.4974 58.1442H64.6967C65.412 58.1442 65.992 57.5643 65.992 56.849C65.9922 56.1336 65.4122 55.5537 64.6967 55.5537Z" fill="url(#paint10_linear_10837_77473)"/>
<path id="Vector_16" d="M75.232 60.1572H55.4974C54.7821 60.1572 54.2021 60.7372 54.2021 61.4525C54.2021 62.1678 54.7821 62.7477 55.4974 62.7477H75.232C75.9473 62.7477 76.5272 62.1678 76.5272 61.4525C76.5274 60.7372 75.9475 60.1572 75.232 60.1572Z" fill="url(#paint11_linear_10837_77473)"/>
</g>
</g>
<g id="Group_9">
<path id="Vector_17" d="M54.3108 50.8711C53.4065 51.5016 53.6152 53.3586 53.6152 53.3586L54.4499 53.5688H51.2118V54.7424C51.8319 54.7578 52.5007 54.7619 53.1738 54.7414H53.1819C55.5637 54.6683 57.9455 54.298 57.9974 53.1134C58.1015 50.731 55.2149 50.2405 54.3108 50.8711Z" fill="url(#paint12_linear_10837_77473)"/>
<path id="Vector_18" d="M11.6892 50.8711C12.5935 51.5016 12.3848 53.3586 12.3848 53.3586L11.5501 53.5688H14.7882V54.7424C14.1681 54.7578 13.4993 54.7619 12.8262 54.7414H12.8181C10.4363 54.6683 8.0547 54.298 8.00276 53.1134C7.89832 50.731 10.7851 50.2405 11.6892 50.8711Z" fill="url(#paint13_linear_10837_77473)"/>
<path id="Vector_19" d="M55.6343 52.8841C56.3975 52.8841 57.0162 52.4191 57.0162 51.8454C57.0162 51.2717 56.3975 50.8066 55.6343 50.8066C54.8711 50.8066 54.2524 51.2717 54.2524 51.8454C54.2524 52.4191 54.8711 52.8841 55.6343 52.8841Z" fill="url(#paint14_linear_10837_77473)"/>
<path id="Vector_20" d="M10.4225 52.8841C11.1857 52.8841 11.8044 52.4191 11.8044 51.8454C11.8044 51.2717 11.1857 50.8066 10.4225 50.8066C9.65934 50.8066 9.04065 51.2717 9.04065 51.8454C9.04065 52.4191 9.65934 52.8841 10.4225 52.8841Z" fill="url(#paint15_linear_10837_77473)"/>
<path id="Vector_21" d="M46.158 73.6689V78.3377C46.158 79.5681 47.1093 80.5654 48.2831 80.5654H53.2434C54.4171 80.5654 55.3685 79.5679 55.3685 78.3377V73.6689H46.158Z" fill="url(#paint16_linear_10837_77473)"/>
<path id="Vector_22" opacity="0.5" d="M54.0526 73.6689C54.0526 76.7134 51.6984 79.1814 48.794 79.1814H46.9672C46.7251 79.1814 46.4962 79.1299 46.2794 79.0517C46.5644 79.9298 47.3489 80.5656 48.283 80.5656H53.2434C54.4171 80.5656 55.3685 79.5683 55.3685 78.3379V73.6691L54.0526 73.6689Z" fill="url(#paint17_linear_10837_77473)"/>
<path id="Vector_23" d="M10.6306 73.6689V78.3377C10.6306 79.5681 11.582 80.5654 12.7557 80.5654H17.7161C18.8898 80.5654 19.8412 79.5679 19.8412 78.3377V73.6689H10.6306Z" fill="url(#paint18_linear_10837_77473)"/>
<path id="Vector_24" opacity="0.5" d="M18.5253 73.6689C18.5253 76.7134 16.1708 79.1814 13.2666 79.1814H11.4398C11.1978 79.1814 10.9688 79.1299 10.7521 79.0517C11.0371 79.9298 11.8216 80.5656 12.7557 80.5656H17.716C18.8898 80.5656 19.8411 79.5683 19.8411 78.3379V73.6691L18.5253 73.6689Z" fill="url(#paint19_linear_10837_77473)"/>
<path id="Vector_25" d="M12.9517 54.3584H52.9818L57.1111 60.0125C57.6881 60.8189 58.0001 61.7999 58.0001 62.8079V72.3905C58.0001 74.6198 56.276 76.4272 54.1492 76.4272H11.8509C9.72406 76.4275 8 74.6202 8 72.3906V62.8081C8 61.7999 8.312 60.8191 8.88894 60.0127L12.9517 54.3584Z" fill="url(#paint20_linear_10837_77473)"/>
<path id="Vector_26" d="M12.9517 54.3587L17.7115 42.4447C18.2078 41.3002 19.2963 40.5654 20.4955 40.5654H45.5045C46.7037 40.5654 47.7924 41.3002 48.2885 42.4447L52.9816 54.3587H12.9517Z" fill="url(#paint21_linear_10837_77473)"/>
<path id="Vector_27" d="M50.4672 51.4957L47.3082 42.9663C47.1633 42.575 46.8308 42.3213 46.4629 42.3213H19.5053C19.1373 42.3213 18.8048 42.575 18.6599 42.9663L15.5009 51.4957C15.2408 52.198 15.6859 52.9794 16.3463 52.9794H49.6219C50.2821 52.9794 50.7274 52.198 50.4672 51.4957Z" fill="white"/>
<path id="Vector_28" opacity="0.6" d="M50.4672 51.4957L47.3082 42.9663C47.1633 42.575 46.8308 42.3213 46.4628 42.3213H44.1111C45.5191 46.1227 43.1093 50.3513 39.5352 50.3513H15.9246L15.5009 51.4957C15.2408 52.198 15.6859 52.9794 16.3463 52.9794H49.6219C50.2821 52.9794 50.7274 52.198 50.4672 51.4957Z" fill="url(#paint22_linear_10837_77473)"/>
<g id="Group_10">
<g id="Group_11">
<path id="Vector_29" d="M46.5296 66.7958C47.6566 65.93 50.6338 63.8316 53.2173 63.662C54.4282 63.5825 55.5361 64.513 55.6957 65.774C55.7883 66.5056 55.7073 67.3304 55.1401 67.9769C54.1235 69.136 49.3121 69.0428 47.1371 68.9375C46.5339 68.9082 46.0649 68.3868 46.0649 67.7538C46.0651 67.3739 46.2374 67.0205 46.5296 66.7958Z" fill="white"/>
<path id="Vector_30" d="M46.5296 66.7957C46.9245 66.4923 47.5545 66.0363 48.3069 65.5664C48.0921 65.7211 47.9002 65.8634 47.7476 65.9806C47.4555 66.205 47.2832 66.5587 47.2832 66.9383C47.2832 67.5713 47.7521 68.0928 48.3553 68.122C50.0852 68.206 53.4773 68.2797 55.3069 67.7242C55.2514 67.8083 55.2099 67.8972 55.1404 67.9765C54.1238 69.1357 49.3123 69.0425 47.1373 68.9369C46.5341 68.9077 46.0652 68.3862 46.0652 67.7532C46.0652 67.3737 46.2375 67.0201 46.5296 66.7957Z" fill="url(#paint23_linear_10837_77473)"/>
</g>
<g id="Group_12">
<path id="Vector_31" d="M19.4705 66.7958C18.3434 65.93 15.3663 63.8316 12.7827 63.662C11.5718 63.5825 10.4639 64.513 10.3043 65.774C10.2117 66.5056 10.2927 67.3304 10.8599 67.9769C11.8765 69.136 16.688 69.0428 18.863 68.9375C19.4661 68.9082 19.9351 68.3868 19.9351 67.7538C19.9349 67.3739 19.7626 67.0205 19.4705 66.7958Z" fill="white"/>
<path id="Vector_32" d="M19.4705 66.7957C19.0756 66.4923 18.4456 66.0363 17.6932 65.5664C17.908 65.7211 18.0999 65.8634 18.2525 65.9806C18.5446 66.205 18.7169 66.5587 18.7169 66.9383C18.7169 67.5713 18.248 68.0928 17.6448 68.122C15.9149 68.206 12.5229 68.2797 10.6932 67.7242C10.7487 67.8083 10.7902 67.8972 10.8597 67.9765C11.8764 69.1357 16.6878 69.0425 18.8628 68.9369C19.466 68.9077 19.9349 68.3862 19.9349 67.7532C19.9349 67.3737 19.7626 67.0201 19.4705 66.7957Z" fill="url(#paint24_linear_10837_77473)"/>
</g>
</g>
<path id="Vector_33" d="M53.8604 58.1L52.5403 56.124C52.2393 55.6734 51.7477 55.4053 51.2231 55.4053H14.6536C14.1028 55.4053 13.5903 55.7008 13.2954 56.1885L12.1396 58.0998C11.711 59.0086 12.0322 60.2439 12.7753 60.5441L18.7273 62.9475C19.8924 63.4179 21.098 63.6566 22.3098 63.6566H32.3587H33.6412H43.6901C44.9017 63.6566 46.1075 63.4179 47.2726 62.9475L53.2246 60.5441C53.9677 60.2441 54.2891 59.0088 53.8604 58.1Z" fill="url(#paint25_linear_10837_77473)"/>
<path id="Vector_34" d="M22.3099 63.1051C21.1618 63.1051 20.0201 62.8788 18.9169 62.4329L12.9643 60.0299C12.8036 59.9653 12.6598 59.7888 12.5698 59.5464C12.4271 59.1626 12.4427 58.7019 12.6109 58.3462L13.7396 56.4834C13.9387 56.1547 14.2805 55.958 14.6533 55.958H51.2229C51.5764 55.958 51.9065 56.1386 52.1083 56.4416L53.4279 58.4176C53.5564 58.7019 53.5719 59.1626 53.4305 59.5464C53.3392 59.7888 53.1967 59.9653 53.036 60.0299L47.0842 62.4329C45.9804 62.8788 44.8382 63.1051 43.6907 63.1051H22.3099Z" fill="url(#paint26_linear_10837_77473)"/>
<path id="Vector_35" d="M43.2106 63.5859H33.9969H32.0028H22.7891C22.3599 63.5859 22.0728 64.0487 22.2468 64.4599L24.5152 69.8209C24.6104 70.0457 24.8229 70.1906 25.0574 70.1906H32.0026H33.9967H40.9419C41.1765 70.1906 41.3889 70.0457 41.4841 69.8209L43.7525 64.4599C43.9269 64.0487 43.6398 63.5859 43.2106 63.5859Z" fill="url(#paint27_linear_10837_77473)"/>
<path id="Vector_36" opacity="0.5" d="M43.2109 63.5859H41.507C40.232 66.5993 37.3828 68.5419 34.2381 68.5419H32.079H30.0849H23.9745L24.5156 69.8207C24.6107 70.0455 24.8233 70.1904 25.0579 70.1904H32.003H33.9971H40.9425C41.177 70.1904 41.3895 70.0455 41.4847 69.8207L43.7531 64.4597C43.9269 64.0487 43.6399 63.5859 43.2109 63.5859Z" fill="url(#paint28_linear_10837_77473)"/>
<path id="Vector_37" d="M51.1664 73.0254H14.8336L14.477 73.4855C14.2199 73.8172 14.4451 74.313 14.8527 74.313H33.0001H51.1475C51.5551 74.313 51.7803 73.817 51.5232 73.4855L51.1664 73.0254Z" fill="url(#paint29_linear_10837_77473)"/>
<path id="Vector_38" opacity="0.6" d="M57.1111 60.0125L52.9818 54.3584H52.742L53.8231 55.8387C54.4168 56.6515 54.7383 57.6466 54.7383 58.6701C54.7383 66.1919 48.9215 72.2896 41.7461 72.2896H8.58894C8.38719 72.2896 8.19331 72.2586 8 72.2273V72.3908C8 74.6202 9.72406 76.4275 11.8509 76.4275H54.1492C56.276 76.4275 58.0001 74.6202 58.0001 72.3908V62.8081C58.0001 61.7997 57.6881 60.8189 57.1111 60.0125Z" fill="url(#paint30_linear_10837_77473)"/>
</g>
</g>
</g>
<defs>
<linearGradient id="paint0_linear_10837_77473" x1="60.0838" y1="17.6195" x2="60.0838" y2="74.6326" gradientUnits="userSpaceOnUse">
<stop stop-color="#FFE878"/>
<stop offset="1" stop-color="#FEAD00"/>
</linearGradient>
<linearGradient id="paint1_linear_10837_77473" x1="60.0894" y1="10.0014" x2="60.0894" y2="20.8464" gradientUnits="userSpaceOnUse">
<stop offset="0.0013" stop-color="#766E6E"/>
<stop offset="1" stop-color="#9E9797"/>
</linearGradient>
<linearGradient id="paint2_linear_10837_77473" x1="71.1576" y1="18.3325" x2="47.9676" y2="23.6969" gradientUnits="userSpaceOnUse">
<stop stop-color="#9E9797"/>
<stop offset="1" stop-color="#CDBFBA" stop-opacity="0"/>
</linearGradient>
<linearGradient id="paint3_linear_10837_77473" x1="50.7706" y1="30.5367" x2="44.8606" y2="37.2905" gradientUnits="userSpaceOnUse">
<stop stop-color="#8BEFC9"/>
<stop offset="1" stop-color="#33C4AF"/>
</linearGradient>
<linearGradient id="paint4_linear_10837_77473" x1="54.2018" y1="32.1812" x2="65.9918" y2="32.1812" gradientUnits="userSpaceOnUse">
<stop stop-color="#CDBFBA"/>
<stop offset="1" stop-color="#9E9797"/>
</linearGradient>
<linearGradient id="paint5_linear_10837_77473" x1="54.2018" y1="36.786" x2="76.5274" y2="36.786" gradientUnits="userSpaceOnUse">
<stop stop-color="#CDBFBA"/>
<stop offset="1" stop-color="#9E9797"/>
</linearGradient>
<linearGradient id="paint6_linear_10837_77473" x1="50.7706" y1="42.8697" x2="44.8606" y2="49.6235" gradientUnits="userSpaceOnUse">
<stop stop-color="#8BEFC9"/>
<stop offset="1" stop-color="#33C4AF"/>
</linearGradient>
<linearGradient id="paint7_linear_10837_77473" x1="54.2018" y1="44.5161" x2="65.9918" y2="44.5161" gradientUnits="userSpaceOnUse">
<stop stop-color="#CDBFBA"/>
<stop offset="1" stop-color="#9E9797"/>
</linearGradient>
<linearGradient id="paint8_linear_10837_77473" x1="54.2018" y1="49.1191" x2="76.5274" y2="49.1191" gradientUnits="userSpaceOnUse">
<stop stop-color="#CDBFBA"/>
<stop offset="1" stop-color="#9E9797"/>
</linearGradient>
<linearGradient id="paint9_linear_10837_77473" x1="50.7706" y1="55.2035" x2="44.8606" y2="61.9573" gradientUnits="userSpaceOnUse">
<stop stop-color="#8BEFC9"/>
<stop offset="1" stop-color="#33C4AF"/>
</linearGradient>
<linearGradient id="paint10_linear_10837_77473" x1="54.2018" y1="56.8499" x2="65.9918" y2="56.8499" gradientUnits="userSpaceOnUse">
<stop stop-color="#CDBFBA"/>
<stop offset="1" stop-color="#9E9797"/>
</linearGradient>
<linearGradient id="paint11_linear_10837_77473" x1="54.2018" y1="61.453" x2="76.5274" y2="61.453" gradientUnits="userSpaceOnUse">
<stop stop-color="#CDBFBA"/>
<stop offset="1" stop-color="#9E9797"/>
</linearGradient>
<linearGradient id="paint12_linear_10837_77473" x1="54.6069" y1="50.8163" x2="54.6069" y2="54.8007" gradientUnits="userSpaceOnUse">
<stop stop-color="#5F5F60"/>
<stop offset="1" stop-color="#282828"/>
</linearGradient>
<linearGradient id="paint13_linear_10837_77473" x1="11.3937" y1="50.8163" x2="11.3937" y2="54.8007" gradientUnits="userSpaceOnUse">
<stop stop-color="#5F5F60"/>
<stop offset="1" stop-color="#282828"/>
</linearGradient>
<linearGradient id="paint14_linear_10837_77473" x1="56.2624" y1="50.8441" x2="55.2856" y2="52.3985" gradientUnits="userSpaceOnUse">
<stop stop-color="white"/>
<stop offset="0.9974" stop-color="white" stop-opacity="0"/>
</linearGradient>
<linearGradient id="paint15_linear_10837_77473" x1="9.79252" y1="50.8441" x2="10.7713" y2="52.3985" gradientUnits="userSpaceOnUse">
<stop stop-color="white"/>
<stop offset="0.9974" stop-color="white" stop-opacity="0"/>
</linearGradient>
<linearGradient id="paint16_linear_10837_77473" x1="50.7631" y1="73.9969" x2="50.7631" y2="80.64" gradientUnits="userSpaceOnUse">
<stop stop-color="#5F5F60"/>
<stop offset="1" stop-color="#282828"/>
</linearGradient>
<linearGradient id="paint17_linear_10837_77473" x1="50.8231" y1="73.9969" x2="50.8231" y2="80.64" gradientUnits="userSpaceOnUse">
<stop stop-color="#5F5F60"/>
<stop offset="1" stop-color="#282828"/>
</linearGradient>
<linearGradient id="paint18_linear_10837_77473" x1="15.2356" y1="73.9969" x2="15.2356" y2="80.64" gradientUnits="userSpaceOnUse">
<stop stop-color="#5F5F60"/>
<stop offset="1" stop-color="#282828"/>
</linearGradient>
<linearGradient id="paint19_linear_10837_77473" x1="15.2975" y1="73.9969" x2="15.2975" y2="80.64" gradientUnits="userSpaceOnUse">
<stop stop-color="#5F5F60"/>
<stop offset="1" stop-color="#282828"/>
</linearGradient>
<linearGradient id="paint20_linear_10837_77473" x1="32.9994" y1="55.0536" x2="32.9994" y2="72.8118" gradientUnits="userSpaceOnUse">
<stop stop-color="#76CCF8"/>
<stop offset="1" stop-color="#4981F8"/>
</linearGradient>
<linearGradient id="paint21_linear_10837_77473" x1="32.9675" y1="54.1333" x2="32.9675" y2="41.1883" gradientUnits="userSpaceOnUse">
<stop stop-color="#76CCF8"/>
<stop offset="1" stop-color="#4981F8"/>
</linearGradient>
<linearGradient id="paint22_linear_10837_77473" x1="15.4249" y1="47.6514" x2="50.5418" y2="47.6514" gradientUnits="userSpaceOnUse">
<stop stop-color="#EEF4FF"/>
<stop offset="1" stop-color="#5BDBFD"/>
</linearGradient>
<linearGradient id="paint23_linear_10837_77473" x1="55.3063" y1="67.2809" x2="46.0663" y2="67.2809" gradientUnits="userSpaceOnUse">
<stop stop-color="#D0E4FF"/>
<stop offset="1" stop-color="#C2CFFD"/>
</linearGradient>
<linearGradient id="paint24_linear_10837_77473" x1="10.6944" y1="67.2809" x2="19.9344" y2="67.2809" gradientUnits="userSpaceOnUse">
<stop stop-color="#D0E4FF"/>
<stop offset="1" stop-color="#C2CFFD"/>
</linearGradient>
<linearGradient id="paint25_linear_10837_77473" x1="32.9994" y1="52.937" x2="32.9994" y2="61.6726" gradientUnits="userSpaceOnUse">
<stop stop-color="#197BFF"/>
<stop offset="0.3295" stop-color="#257CFD" stop-opacity="0.671"/>
<stop offset="0.9218" stop-color="#4480F9" stop-opacity="0.078"/>
<stop offset="1" stop-color="#4981F8" stop-opacity="0"/>
</linearGradient>
<linearGradient id="paint26_linear_10837_77473" x1="34.8969" y1="50.9574" x2="33.0425" y2="58.8174" gradientUnits="userSpaceOnUse">
<stop stop-color="white"/>
<stop offset="0.9974" stop-color="white" stop-opacity="0"/>
</linearGradient>
<linearGradient id="paint27_linear_10837_77473" x1="32.9994" y1="63.8552" x2="32.9994" y2="68.0158" gradientUnits="userSpaceOnUse">
<stop stop-color="#5F5F60"/>
<stop offset="1" stop-color="#282828"/>
</linearGradient>
<linearGradient id="paint28_linear_10837_77473" x1="33.8901" y1="63.8552" x2="33.8901" y2="68.0158" gradientUnits="userSpaceOnUse">
<stop stop-color="#5F5F60"/>
<stop offset="1" stop-color="#282828"/>
</linearGradient>
<linearGradient id="paint29_linear_10837_77473" x1="32.9993" y1="73.0785" x2="32.9993" y2="73.8885" gradientUnits="userSpaceOnUse">
<stop stop-color="#5F5F60"/>
<stop offset="1" stop-color="#282828"/>
</linearGradient>
<linearGradient id="paint30_linear_10837_77473" x1="32.9994" y1="55.0535" x2="32.9994" y2="72.8116" gradientUnits="userSpaceOnUse">
<stop stop-color="#EEF4FF"/>
<stop offset="1" stop-color="#5BDBFD"/>
</linearGradient>
</defs>
</svg>
